<svg xmlns="http://www.w3.org/2000/svg" xmlns:xlink="http://www.w3.org/1999/xlink" id="body_1" preserveAspectRatio="xMinYMin meet" viewBox="0 0 1121 793"><defs><clipPath id="1"><path id="" clip-rule="evenodd" transform="matrix(1 0 0 1 0 0)" d="M0 595L0 0L0 0L841 0L841 0L841 595L841 595L0 595z" /></clipPath><clipPath id="2"><path id="" clip-rule="evenodd" transform="matrix(1 0 0 1 0 0)" d="M0 0L841.8878 0L841.8878 0L841.8878 595.2756L841.8878 595.2756L0 595.2756L0 595.2756L0 0z" /></clipPath><clipPath id="3"><path id="" clip-rule="evenodd" transform="matrix(1 0 0 1 0 0)" d="M0 0L841.8878 0L841.8878 0L841.8878 595.2756L841.8878 595.2756L0 595.2756z" /></clipPath><clipPath id="4"><path id="" clip-rule="evenodd" transform="matrix(1 0 0 1 0 0)" d="M719.0872 17.66559L811.8557 17.66559L811.8557 17.66559L811.8557 46.74396L811.8557 46.74396L719.0872 46.74396z" /></clipPath></defs><g transform="matrix(1.333333 0 0 1.333333 0 0)"><g clip-path="url(#1)"><g clip-path="url(#2)"><path id="1" transform="matrix(1 0 0 -1 0 595)" d="M0 595L841.8878 595L841.8878 595L841.8878 -0.2755737L841.8878 -0.2755737L0 -0.2755737z" stroke="none" fill="#000000" fill-rule="evenodd" fill-opacity="0" /><g clip-path="url(#3)"><g transform="matrix(0.3367551 0 0 0.3573083 0 0)"><g transform="matrix(1 0 0 1 0 0)"><image x="0" y="0" xlink:href="img_01.png" width="2500" height="1666" /></g></g></g><path id="3" transform="matrix(1 0 0 -1 0 595)" d="M-0.007873997 17.30707L841.8799 17.30707L841.8799 17.30707L841.8799 -0.2677002L841.8799 -0.2677002L-0.007873997 -0.2677002z" stroke="none" fill="#0059A5" fill-rule="evenodd" /><path id="4" transform="matrix(1 0 0 -1 0 595)" d="M329.0341 506.1054L813.781 506.1054L813.781 506.1054L813.781 382.1133L813.781 382.1133L329.0341 382.1133z" stroke="none" fill="#000000" fill-rule="evenodd" fill-opacity="0" /><path id="46" transform="matrix(1 0 0 -1 0 595)" d="M348.2905 356.3872L841.8956 356.3872L841.8956 356.3872L841.8956 349.6786L841.8956 349.6786L348.2905 349.6786z" stroke="none" fill="#EEEEEE" fill-rule="evenodd" /><path id="47" transform="matrix(1 0 0 -1 0 595)" d="M348.2905 356.3872L841.8956 356.3872L841.8956 356.3872L841.8956 349.6786L841.8956 349.6786L348.2905 349.6786z" stroke="#595959" stroke-width="0.7499982" fill="none" /><path id="48" transform="matrix(1 0 0 -1 0 595)" d="M719.0872 577.3344L811.8557 577.3344L811.8557 577.3344L811.8557 548.256L811.8557 548.256L719.0872 548.256z" stroke="none" fill="#000000" fill-rule="evenodd" fill-opacity="0" /><g clip-path="url(#4)"><g transform="matrix(0.1177264 0 0 0.1177261 719.0872 17.66559)"><g transform="matrix(1 0 0 1 0 0)"><image x="0" y="0" xlink:href="img_02.png" width="788" height="247" /></g></g></g></g></g></g></svg>