<svg xmlns="http://www.w3.org/2000/svg" xmlns:xlink="http://www.w3.org/1999/xlink" id="body_1" preserveAspectRatio="xMinYMin meet" viewBox="0 0 1121 793"><defs><clipPath id="1"><path id="" clip-rule="evenodd" transform="matrix(1 0 0 1 0 0)" d="M0 595L0 0L0 0L841 0L841 0L841 595L841 595L0 595z" /></clipPath><clipPath id="2"><path id="" clip-rule="evenodd" transform="matrix(1 0 0 1 0 0)" d="M0 0L841.8878 0L841.8878 0L841.8878 595.2756L841.8878 595.2756L0 595.2756L0 595.2756L0 0z" /></clipPath><clipPath id="3"><path id="" clip-rule="evenodd" transform="matrix(1 0 0 1 0 0)" d="M0 0L841.8878 0L841.8878 0L841.8878 595.2756L841.8878 595.2756L0 595.2756z" /></clipPath><clipPath id="4"><path id="" clip-rule="evenodd" transform="matrix(1 0 0 1 0 0)" d="M719.0868 17.66522L811.8561 17.66522L811.8561 17.66522L811.8561 46.74365L811.8561 46.74365L719.0868 46.74365z" /></clipPath></defs><g transform="matrix(1.333333 0 0 1.333333 0 0)"><g clip-path="url(#1)"><g clip-path="url(#2)"><path id="1" transform="matrix(1 0 0 -1 0 595)" d="M0 595L841.8878 595L841.8878 595L841.8878 -0.2755737L841.8878 -0.2755737L0 -0.2755737z" stroke="none" fill="#000000" fill-rule="evenodd" fill-opacity="0" /><g clip-path="url(#3)"><g transform="matrix(0.3367551 0 0 0.3366943 0 0)"><g transform="matrix(1 0 0 1 0 0)"><image x="0" y="0" xlink:href="img_01.png" width="2500" height="1768" /></g></g></g><path id="3" transform="matrix(1 0 0 -1 0 595)" d="M-0.007873997 271.8268L841.8799 271.8268L841.8799 271.8268L841.8799 -0.2755737L841.8799 -0.2755737L-0.007873997 -0.2755737z" stroke="none" fill="#0059A5" fill-rule="evenodd" /><path id="4" transform="matrix(1 0 0 -1 0 595)" d="M27.48804 569.7388L601.0064 569.7388L601.0064 569.7388L601.0064 518.8333L601.0064 518.8333L27.48804 518.8333z" stroke="none" fill="#000000" fill-rule="evenodd" fill-opacity="0" /><path id="14" transform="matrix(1 0 0 -1 0 595)" d="M208.472 538.067L817.8484 538.067L817.8484 538.067L817.8484 533.0355L817.8484 533.0355L208.472 533.0355z" stroke="none" fill="#0059A5" fill-rule="evenodd" /><path id="15" transform="matrix(1 0 0 -1 0 595)" d="M35.1633 253.2682L808.7599 253.2682L808.7599 253.2682L808.7599 214.4808L808.7599 214.4808L35.1633 214.4808z" stroke="none" fill="#000000" fill-rule="evenodd" fill-opacity="0" /><path id="60" transform="matrix(1 0 0 -1 0 595)" d="M35.1633 214.4803L808.7599 214.4803L808.7599 214.4803L808.7599 124.4331L808.7599 124.4331L35.1633 124.4331z" stroke="none" fill="#000000" fill-rule="evenodd" fill-opacity="0" /><path id="394" transform="matrix(1 0 0 -1 0 595)" d="M35.1633 122.9409L808.7599 122.9409L808.7599 122.9409L808.7599 84.15353L808.7599 84.15353L35.1633 84.15353z" stroke="none" fill="#000000" fill-rule="evenodd" fill-opacity="0" /><path id="449" transform="matrix(1 0 0 -1 0 595)" d="M35.1633 84.15353L808.7599 84.15353L808.7599 84.15353L808.7599 33.12994L808.7599 33.12994L35.1633 33.12994z" stroke="none" fill="#000000" fill-rule="evenodd" fill-opacity="0" /><path id="577" transform="matrix(1 0 0 -1 0 595)" d="M35.1633 491.9045L808.7599 491.9045L808.7599 491.9045L808.7599 303.6368L808.7599 303.6368L35.1633 303.6368z" stroke="none" fill="#000000" fill-rule="evenodd" fill-opacity="0" /><path id="902" transform="matrix(1 0 0 -1 0 595)" d="M719.0868 577.3348L811.8561 577.3348L811.8561 577.3348L811.8561 548.2563L811.8561 548.2563L719.0868 548.2563z" stroke="none" fill="#000000" fill-rule="evenodd" fill-opacity="0" /><g clip-path="url(#4)"><g transform="matrix(0.1177276 0 0 0.1177264 719.0868 17.66522)"><g transform="matrix(1 0 0 1 0 0)"><image x="0" y="0" xlink:href="img_02.png" width="788" height="247" /></g></g></g></g></g></g></svg>