<svg xmlns="http://www.w3.org/2000/svg" xmlns:xlink="http://www.w3.org/1999/xlink" id="body_1" preserveAspectRatio="xMinYMin meet" viewBox="0 0 1121 793"><defs><clipPath id="1"><path id="" clip-rule="evenodd" transform="matrix(1 0 0 1 0 0)" d="M0 595L0 0L0 0L841 0L841 0L841 595L841 595L0 595z" /></clipPath><clipPath id="2"><path id="" clip-rule="evenodd" transform="matrix(1 0 0 1 0 0)" d="M0 0L841.8878 0L841.8878 0L841.8878 595.2756L841.8878 595.2756L0 595.2756L0 595.2756L0 0z" /></clipPath><clipPath id="3"><path id="" clip-rule="evenodd" transform="matrix(1 0 0 1 0 0)" d="M0 0L841.8878 0L841.8878 0L841.8878 595.2756L841.8878 595.2756L0 595.2756z" /></clipPath><clipPath id="4"><path id="" clip-rule="evenodd" transform="matrix(1 0 0 1 0 0)" d="M719.0868 17.66522L811.8561 17.66522L811.8561 17.66522L811.8561 46.74365L811.8561 46.74365L719.0868 46.74365z" /></clipPath></defs><g transform="matrix(1.333333 0 0 1.333333 0 0)"><g clip-path="url(#1)"><g clip-path="url(#2)"><path id="1" transform="matrix(1 0 0 -1 0 595)" d="M0 595L841.8878 595L841.8878 595L841.8878 -0.2755737L841.8878 -0.2755737L0 -0.2755737z" stroke="none" fill="#000000" fill-rule="evenodd" fill-opacity="0" /><g clip-path="url(#3)"><g transform="matrix(0.3367551 0 0 0.3366943 0 0)"><g transform="matrix(1 0 0 1 0 0)"><image x="0" y="0" xlink:href="img_01.png" width="2500" height="1768" /></g></g></g><path id="3" transform="matrix(1 0 0 -1 0 595)" d="M27.48812 569.7382L681.5102 569.7382L681.5102 569.7382L681.5102 477.0217L681.5102 477.0217L27.48812 477.0217z" stroke="none" fill="#000000" fill-rule="evenodd" fill-opacity="0" /><path id="55" transform="matrix(1 0 0 -1 0 595)" d="M596.1108 497.7402L817.8504 497.7402L817.8504 497.7402L817.8504 492.7087L817.8504 492.7087L596.1108 492.7087z" stroke="none" fill="#0059A5" fill-rule="evenodd" /><path id="56" transform="matrix(1 0 0 -1 0 595)" d="M-0.007873997 228.9823L841.8799 228.9823L841.8799 228.9823L841.8799 -0.2696533L841.8799 -0.2696533L-0.007873997 -0.2696533z" stroke="none" fill="#0059A5" fill-rule="evenodd" /><path id="57" transform="matrix(1 0 0 -1 0 595)" d="M27.48812 456.0181L817.8327 456.0181L817.8327 456.0181L817.8327 249.9866L817.8327 249.9866L27.48812 249.9866z" stroke="none" fill="#000000" fill-rule="evenodd" fill-opacity="0" /><path id="322" transform="matrix(1 0 0 -1 0 595)" d="M35.1633 210.7067L817.8307 210.7067L817.8307 210.7067L817.8307 23.80908L817.8307 23.80908L35.1633 23.80908z" stroke="none" fill="#000000" fill-rule="evenodd" fill-opacity="0" /><path id="574" transform="matrix(1 0 0 -1 0 595)" d="M719.0868 577.3348L811.8561 577.3348L811.8561 577.3348L811.8561 548.2563L811.8561 548.2563L719.0868 548.2563z" stroke="none" fill="#000000" fill-rule="evenodd" fill-opacity="0" /><g clip-path="url(#4)"><g transform="matrix(0.1177276 0 0 0.1177264 719.0868 17.66522)"><g transform="matrix(1 0 0 1 0 0)"><image x="0" y="0" xlink:href="img_02.png" width="788" height="247" /></g></g></g></g></g></g></svg>