<svg xmlns="http://www.w3.org/2000/svg" xmlns:xlink="http://www.w3.org/1999/xlink" id="body_1" preserveAspectRatio="xMinYMin meet" viewBox="0 0 1121 793"><defs><clipPath id="1"><path id="" clip-rule="evenodd" transform="matrix(1 0 0 1 0 0)" d="M0 595L0 0L0 0L841 0L841 0L841 595L841 595L0 595z" /></clipPath><clipPath id="2"><path id="" clip-rule="evenodd" transform="matrix(1 0 0 1 0 0)" d="M0 0L841.8878 0L841.8878 0L841.8878 595.2756L841.8878 595.2756L0 595.2756L0 595.2756L0 0z" /></clipPath><clipPath id="3"><path id="" clip-rule="evenodd" transform="matrix(1 0 0 1 0 0)" d="M0 0L841.8878 0L841.8878 0L841.8878 595.2756L841.8878 595.2756L0 595.2756z" /></clipPath><clipPath id="4"><path id="" clip-rule="evenodd" transform="matrix(1 0 0 1 0 0)" d="M719.0868 17.66522L811.8561 17.66522L811.8561 17.66522L811.8561 46.74365L811.8561 46.74365L719.0868 46.74365z" /></clipPath></defs><g transform="matrix(1.333333 0 0 1.333333 0 0)"><g clip-path="url(#1)"><g clip-path="url(#2)"><path id="1" transform="matrix(1 0 0 -1 0 595)" d="M0 595L841.8878 595L841.8878 595L841.8878 -0.2755737L841.8878 -0.2755737L0 -0.2755737z" stroke="none" fill="#000000" fill-rule="evenodd" fill-opacity="0" /><g clip-path="url(#3)"><g transform="matrix(0.3367551 0 0 0.3570939 0 0)"><g transform="matrix(1 0 0 1 0 0)"><image x="0" y="0" xlink:href="img_01.png" width="2500" height="1667" /></g></g></g><path id="3" transform="matrix(1 0 0 -1 0 595)" d="M-0.007873997 17.30707L841.8799 17.30707L841.8799 17.30707L841.8799 -0.2677002L841.8799 -0.2677002L-0.007873997 -0.2677002z" stroke="none" fill="#0059A5" fill-rule="evenodd" /><path id="4" transform="matrix(1 0 0 -1 0 595)" d="M378.4302 511.9669L813.7835 511.9669L813.7835 511.9669L813.7835 387.9748L813.7835 387.9748L378.4302 387.9748z" stroke="none" fill="#000000" fill-rule="evenodd" fill-opacity="0" /><path id="31" transform="matrix(1 0 0 -1 0 595)" d="M49.39752 230.8012L448.7509 230.8012L448.7509 230.8012L448.7509 144.2736L448.7509 144.2736L49.39752 144.2736z" stroke="none" fill="#000000" fill-rule="evenodd" fill-opacity="0" /><path id="112" transform="matrix(1 0 0 -1 0 595)" d="M49.39752 133.4058L549.7822 133.4058L549.7822 133.4058L549.7822 82.50031L549.7822 82.50031L49.39752 82.50031z" stroke="none" fill="#000000" fill-rule="evenodd" fill-opacity="0" /><path id="113" transform="matrix(1 0 0 -1 0 595)" d="M56.1475 126.8958L484.0962 126.8958L484.0962 90.32582L56.1475 90.32582L56.1475 126.8958z" stroke="none" fill="#000000" fill-rule="nonzero" fill-opacity="0" /><path id="143" transform="matrix(1 0 0 -1 0 595)" d="M56.1475 95.90581L484.0962 95.90581L484.0962 93.20581L56.1475 93.20581L56.1475 95.90581z" stroke="none" fill="#0059A5" fill-rule="nonzero" /><path id="144" transform="matrix(1 0 0 -1 0 595)" d="M400.1979 373.1323L841.9055 373.1323L841.9055 373.1323L841.9055 366.4236L841.9055 366.4236L400.1979 366.4236z" stroke="none" fill="#0059A5" fill-rule="evenodd" /><path id="145" transform="matrix(1 0 0 -1 0 595)" d="M719.0868 577.3348L811.8561 577.3348L811.8561 577.3348L811.8561 548.2563L811.8561 548.2563L719.0868 548.2563z" stroke="none" fill="#000000" fill-rule="evenodd" fill-opacity="0" /><g clip-path="url(#4)"><g transform="matrix(0.1177276 0 0 0.1177264 719.0868 17.66522)"><g transform="matrix(1 0 0 1 0 0)"><image x="0" y="0" xlink:href="img_02.png" width="788" height="247" /></g></g></g></g></g></g></svg>