<svg xmlns="http://www.w3.org/2000/svg" xmlns:xlink="http://www.w3.org/1999/xlink" id="body_1" preserveAspectRatio="xMinYMin meet" viewBox="0 0 1121 793"><defs><clipPath id="1"><path id="" clip-rule="evenodd" transform="matrix(1 0 0 1 0 0)" d="M0 595L0 0L0 0L841 0L841 0L841 595L841 595L0 595z" /></clipPath><clipPath id="2"><path id="" clip-rule="evenodd" transform="matrix(1 0 0 1 0 0)" d="M0 0L841.8878 0L841.8878 0L841.8878 595.2756L841.8878 595.2756L0 595.2756L0 595.2756L0 0z" /></clipPath><clipPath id="3"><path id="" clip-rule="evenodd" transform="matrix(1 0 0 1 0 0)" d="M0 0L841.8878 0L841.8878 0L841.8878 595.2756L841.8878 595.2756L0 595.2756z" /></clipPath><clipPath id="4"><path id="" clip-rule="evenodd" transform="matrix(1 0 0 1 0 0)" d="M719.0868 17.66522L811.8561 17.66522L811.8561 17.66522L811.8561 46.74365L811.8561 46.74365L719.0868 46.74365z" /></clipPath></defs><g transform="matrix(1.333333 0 0 1.333333 0 0)"><g clip-path="url(#1)"><g clip-path="url(#2)"><path id="1" transform="matrix(1 0 0 -1 0 595)" d="M0 595L841.8878 595L841.8878 595L841.8878 -0.2755737L841.8878 -0.2755737L0 -0.2755737z" stroke="none" fill="#000000" fill-rule="evenodd" fill-opacity="0" /><g clip-path="url(#3)"><g transform="matrix(0.3367551 0 0 0.3366943 0 0)"><g transform="matrix(1 0 0 1 0 0)"><image x="0" y="0" xlink:href="img_01.png" width="2500" height="1768" /></g></g></g><path id="3" transform="matrix(1 0 0 -1 0 595)" d="M-0.007873997 17.30707L841.8799 17.30707L841.8799 17.30707L841.8799 -0.2677002L841.8799 -0.2677002L-0.007873997 -0.2677002z" stroke="none" fill="#0059A5" fill-rule="evenodd" /><path id="4" transform="matrix(1 0 0 -1 0 595)" d="M27.48812 504.9911L816.1791 504.9911L816.1791 504.9911L816.1791 438.3297L816.1791 438.3297L27.48812 438.3297z" stroke="none" fill="#000000" fill-rule="evenodd" fill-opacity="0" /><path id="88" transform="matrix(1 0 0 -1 0 595)" d="M27.48812 433.4139L816.1791 433.4139L816.1791 433.4139L816.1791 327.9651L816.1791 327.9651L27.48812 327.9651z" stroke="none" fill="#000000" fill-rule="evenodd" fill-opacity="0" /><path id="440" transform="matrix(1 0 0 -1 0 595)" d="M27.48812 314.0972L626.2584 314.0972L626.2584 314.0972L626.2584 275.3098L626.2584 275.3098L27.48812 275.3098z" stroke="none" fill="#000000" fill-rule="evenodd" fill-opacity="0" /><path id="473" transform="matrix(1 0 0 -1 0 595)" d="M27.48812 272.7798L816.1791 272.7798L816.1791 272.7798L816.1791 185.52L816.1791 185.52L27.48812 185.52z" stroke="none" fill="#000000" fill-rule="evenodd" fill-opacity="0" /><path id="740" transform="matrix(1 0 0 -1 0 595)" d="M26.59049 176.2365L625.3607 176.2365L625.3607 176.2365L625.3607 137.4491L625.3607 137.4491L26.59049 137.4491z" stroke="none" fill="#000000" fill-rule="evenodd" fill-opacity="0" /><path id="771" transform="matrix(1 0 0 -1 0 595)" d="M26.59049 134.919L815.2816 134.919L815.2816 134.919L815.2816 65.84821L815.2816 65.84821L26.59049 65.84821z" stroke="none" fill="#000000" fill-rule="evenodd" fill-opacity="0" /><path id="952" transform="matrix(1 0 0 -1 0 595)" d="M719.0868 577.3348L811.8561 577.3348L811.8561 577.3348L811.8561 548.2563L811.8561 548.2563L719.0868 548.2563z" stroke="none" fill="#000000" fill-rule="evenodd" fill-opacity="0" /><g clip-path="url(#4)"><g transform="matrix(0.1177276 0 0 0.1177264 719.0868 17.66522)"><g transform="matrix(1 0 0 1 0 0)"><image x="0" y="0" xlink:href="img_02.png" width="788" height="247" /></g></g></g><path id="954" transform="matrix(1 0 0 -1 0 595)" d="M27.48812 569.7382L478.9044 569.7382L478.9044 569.7382L478.9044 518.8327L478.9044 518.8327L27.48812 518.8327z" stroke="none" fill="#000000" fill-rule="evenodd" fill-opacity="0" /><path id="977" transform="matrix(1 0 0 -1 0 595)" d="M478.9044 538.067L817.8563 538.067L817.8563 538.067L817.8563 533.0355L817.8563 533.0355L478.9044 533.0355z" stroke="none" fill="#0059A5" fill-rule="evenodd" /></g></g></g></svg>