<svg xmlns="http://www.w3.org/2000/svg" xmlns:xlink="http://www.w3.org/1999/xlink" id="body_1" preserveAspectRatio="xMinYMin meet" viewBox="0 0 1121 793"><defs><clipPath id="1"><path id="" clip-rule="evenodd" transform="matrix(1 0 0 1 0 0)" d="M0 595L0 0L0 0L841 0L841 0L841 595L841 595L0 595z" /></clipPath><clipPath id="2"><path id="" clip-rule="evenodd" transform="matrix(1 0 0 1 0 0)" d="M0 0L841.8878 0L841.8878 0L841.8878 595.2756L841.8878 595.2756L0 595.2756L0 595.2756L0 0z" /></clipPath><clipPath id="3"><path id="" clip-rule="evenodd" transform="matrix(1 0 0 1 0 0)" d="M0 0L841.8878 0L841.8878 0L841.8878 595.2756L841.8878 595.2756L0 595.2756z" /></clipPath><clipPath id="4"><path id="" clip-rule="evenodd" transform="matrix(1 0 0 1 0 0)" d="M45.94281 463.4875L146.9485 463.4875L146.9485 463.4875L146.9485 501.1108L146.9485 501.1108L45.94281 501.1108z" /></clipPath><clipPath id="5"><path id="" clip-rule="evenodd" transform="matrix(1 0 0 1 0 0)" d="M173.2496 461.8599L285.2336 461.8599L285.2336 461.8599L285.2336 502.7383L285.2336 502.7383L173.2496 502.7383z" /></clipPath><clipPath id="6"><path id="" clip-rule="evenodd" transform="matrix(1 0 0 1 0 0)" d="M311.5346 468.9645L467.9112 468.9645L467.9112 468.9645L467.9112 495.6338L467.9112 495.6338L311.5346 495.6338z" /></clipPath><clipPath id="7"><path id="" clip-rule="evenodd" transform="matrix(1 0 0 1 0 0)" d="M664.5268 468.9645L798.4705 468.9645L798.4705 468.9645L798.4705 495.6338L798.4705 495.6338L664.5268 495.6338z" /></clipPath><clipPath id="8"><path id="" clip-rule="evenodd" transform="matrix(1 0 0 1 0 0)" d="M494.2123 472.0127L638.2257 472.0127L638.2257 472.0127L638.2257 492.5855L638.2257 492.5855L494.2123 492.5855z" /></clipPath><clipPath id="9"><path id="" clip-rule="evenodd" transform="matrix(1 0 0 1 0 0)" d="M374.4745 535.9879L395.0473 535.9879L395.0473 535.9879L395.0473 556.5608L395.0473 556.5608L374.4745 556.5608z" /></clipPath><clipPath id="10"><path id="" clip-rule="evenodd" transform="matrix(1 0 0 1 0 0)" d="M719.0868 17.66522L811.8561 17.66522L811.8561 17.66522L811.8561 46.74365L811.8561 46.74365L719.0868 46.74365z" /></clipPath></defs><g transform="matrix(1.333333 0 0 1.333333 0 0)"><g clip-path="url(#1)"><g clip-path="url(#2)"><path id="1" transform="matrix(1 0 0 -1 0 595)" d="M0 595L841.8878 595L841.8878 595L841.8878 -0.2755737L841.8878 -0.2755737L0 -0.2755737z" stroke="none" fill="#000000" fill-rule="evenodd" fill-opacity="0" /><g clip-path="url(#3)"><g transform="matrix(0.3367551 0 0 0.3366943 0 0)"><g transform="matrix(1 0 0 1 0 0)"><image x="0" y="0" xlink:href="img_01.png" width="2500" height="1768" /></g></g></g><path id="3" transform="matrix(1 0 0 -1 0 595)" d="M25.75978 311.5937L25.75978 311.5937C 25.75978 321.535 33.8188 329.594 43.7601 329.594L43.7601 329.594L798.1277 329.594C 802.9016 329.594 807.4801 327.6976 810.8558 324.3218C 814.2315 320.9461 816.128 316.3676 816.128 311.5937L816.128 311.5937L816.128 239.5944C 816.128 229.653 808.069 221.594 798.1277 221.594L798.1277 221.594L43.7601 221.594C 33.8188 221.594 25.75978 229.653 25.75978 239.5944z" stroke="none" fill="#0059A5" fill-rule="evenodd" /><path id="4" transform="matrix(1 0 0 -1 0 595)" d="M27.4882 207.598L303.086 207.598L303.086 207.598L303.086 156.6924L303.086 156.6924L27.4882 156.6924z" stroke="none" fill="#000000" fill-rule="evenodd" fill-opacity="0" /><path id="17" transform="matrix(1 0 0 -1 0 595)" d="M27.48812 132.993L27.48812 132.993C 27.48812 138.3116 31.79966 142.6232 37.11821 142.6232L37.11821 142.6232L808.2263 142.6232C 810.7803 142.6232 813.2297 141.6086 815.0357 139.8026C 816.8417 137.9966 817.8563 135.5471 817.8563 132.993L817.8563 132.993L817.8563 94.47372C 817.8563 89.15518 813.5447 84.84363 808.2263 84.84363L808.2263 84.84363L37.11821 84.84363C 31.79966 84.84363 27.48812 89.15518 27.48812 94.47372z" stroke="none" fill="#FFFFFF" fill-rule="evenodd" /><path id="18" transform="matrix(1 0 0 -1 0 595)" d="M45.94281 131.5125L146.9485 131.5125L146.9485 131.5125L146.9485 93.88916L146.9485 93.88916L45.94281 93.88916z" stroke="none" fill="#000000" fill-rule="evenodd" fill-opacity="0" /><g clip-path="url(#4)"><g transform="matrix(0.05492428 0 0 0.05492464 45.9428 463.4875)"><g transform="matrix(1 0 0 1 0 0)"><image x="0" y="0" xlink:href="img_02.png" width="1839" height="685" /></g></g></g><path id="20" transform="matrix(1 0 0 -1 0 595)" d="M173.2496 133.1401L285.2336 133.1401L285.2336 133.1401L285.2336 92.26166L285.2336 92.26166L173.2496 92.26166z" stroke="none" fill="#000000" fill-rule="evenodd" fill-opacity="0" /><g clip-path="url(#5)"><g transform="matrix(0.09104389 0 0 0.09104326 173.2496 461.8599)"><g transform="matrix(1 0 0 1 0 0)"><image x="0" y="0" xlink:href="img_03.png" width="1230" height="449" /></g></g></g><path id="22" transform="matrix(1 0 0 -1 0 595)" d="M311.5346 126.0355L467.9112 126.0355L467.9112 126.0355L467.9112 99.36624L467.9112 99.36624L311.5346 99.36624z" stroke="none" fill="#000000" fill-rule="evenodd" fill-opacity="0" /><g clip-path="url(#6)"><g transform="matrix(0.08282655 0 0 0.08282389 311.5346 468.9645)"><g transform="matrix(1 0 0 1 0 0)"><image x="0" y="0" xlink:href="img_04.png" width="1888" height="322" /></g></g></g><path id="24" transform="matrix(1 0 0 -1 0 595)" d="M664.5268 126.0355L798.4705 126.0355L798.4705 126.0355L798.4705 99.36624L798.4705 99.36624L664.5268 99.36624z" stroke="none" fill="#000000" fill-rule="evenodd" fill-opacity="0" /><g clip-path="url(#7)"><g transform="matrix(0.1498252 0 0 0.1498275 664.5267 468.9645)"><g transform="matrix(1 0 0 1 0 0)"><image x="0" y="0" xlink:href="img_05.png" width="894" height="178" /></g></g></g><path id="26" transform="matrix(1 0 0 -1 0 595)" d="M494.2123 122.9873L638.2257 122.9873L638.2257 122.9873L638.2257 102.4145L638.2257 102.4145L494.2123 102.4145z" stroke="none" fill="#000000" fill-rule="evenodd" fill-opacity="0" /><g clip-path="url(#8)"><g transform="matrix(0.4377308 0 0 0.4377199 494.2123 472.0127)"><g transform="matrix(1 0 0 1 0 0)"><image x="0" y="0" xlink:href="img_06.png" width="329" height="47" /></g></g></g><path id="28" transform="matrix(1 0 0 -1 0 595)" d="M175.7759 64.56549L411.9958 64.56549L411.9958 64.56549L411.9958 35.48676L411.9958 35.48676L175.7759 35.48676z" stroke="none" fill="#000000" fill-rule="evenodd" fill-opacity="0" /><path id="56" transform="matrix(1 0 0 -1 0 595)" d="M374.4745 59.01208L395.0473 59.01208L395.0473 59.01208L395.0473 38.43921L395.0473 38.43921L374.4745 38.43921z" stroke="none" fill="#000000" fill-rule="evenodd" fill-opacity="0" /><g clip-path="url(#9)"><g transform="matrix(0.06857595 0 0 0.06857663 374.4745 535.9202)"><g transform="matrix(1 0 0 1 0 0)"><image x="0" y="0" xlink:href="img_07.png" width="300" height="302" /></g></g></g><path id="58" transform="matrix(1 0 0 -1 0 595)" d="M399.9865 64.56494L666.1119 64.56494L666.1119 64.56494L666.1119 35.48621L666.1119 35.48621L399.9865 35.48621z" stroke="none" fill="#000000" fill-rule="evenodd" fill-opacity="0" /><path id="59" transform="matrix(1 0 0 -1 0 595)" d="M406.7365 57.911L641.2765 57.911L641.2765 43.28297L406.7365 43.28297L406.7365 57.911z" stroke="none" fill="#000000" fill-rule="nonzero" fill-opacity="0" /><path id="101" transform="matrix(1 0 0 -1 0 595)" d="M406.7365 45.51497L641.2765 45.51497L641.2765 44.43497L406.7365 44.43497L406.7365 45.51497z" stroke="none" fill="#0097A7" fill-rule="nonzero" /><path id="102" transform="matrix(1 0 0 -1 0 595)" d="M49.6298 314.8394L792.258 314.8394L792.258 314.8394L792.258 239.6977L792.258 239.6977L49.6298 239.6977z" stroke="none" fill="#000000" fill-rule="evenodd" fill-opacity="0" /><path id="182" transform="matrix(1 0 0 -1 0 595)" d="M27.48804 569.7388L601.0064 569.7388L601.0064 569.7388L601.0064 518.8333L601.0064 518.8333L27.48804 518.8333z" stroke="none" fill="#000000" fill-rule="evenodd" fill-opacity="0" /><path id="194" transform="matrix(1 0 0 -1 0 595)" d="M27.48812 505.1465L816.1791 505.1465L816.1791 505.1465L816.1791 346.3827L816.1791 346.3827L27.48812 346.3827z" stroke="none" fill="#000000" fill-rule="evenodd" fill-opacity="0" /><path id="417" transform="matrix(1 0 0 -1 0 595)" d="M250.334 538.067L817.8524 538.067L817.8524 538.067L817.8524 533.0355L817.8524 533.0355L250.334 533.0355z" stroke="none" fill="#0059A5" fill-rule="evenodd" /><path id="418" transform="matrix(1 0 0 -1 0 595)" d="M285.2336 176.3873L817.8386 176.3873L817.8386 176.3873L817.8386 171.3558L817.8386 171.3558L285.2336 171.3558z" stroke="none" fill="#0059A5" fill-rule="evenodd" /><path id="419" transform="matrix(1 0 0 -1 0 595)" d="M-0.007873997 17.30707L841.8799 17.30707L841.8799 17.30707L841.8799 -0.2677002L841.8799 -0.2677002L-0.007873997 -0.2677002z" stroke="none" fill="#0059A5" fill-rule="evenodd" /><path id="420" transform="matrix(1 0 0 -1 0 595)" d="M719.0868 577.3348L811.8561 577.3348L811.8561 577.3348L811.8561 548.2563L811.8561 548.2563L719.0868 548.2563z" stroke="none" fill="#000000" fill-rule="evenodd" fill-opacity="0" /><g clip-path="url(#10)"><g transform="matrix(0.1177276 0 0 0.1177264 719.0868 17.66522)"><g transform="matrix(1 0 0 1 0 0)"><image x="0" y="0" xlink:href="img_08.png" width="788" height="247" /></g></g></g></g></g></g></svg>