<svg xmlns="http://www.w3.org/2000/svg" xmlns:xlink="http://www.w3.org/1999/xlink" id="body_1" preserveAspectRatio="xMinYMin meet" viewBox="0 0 1121 793"><defs><clipPath id="1"><path id="" clip-rule="evenodd" transform="matrix(1 0 0 1 0 0)" d="M0 595L0 0L0 0L841 0L841 0L841 595L841 595L0 595z" /></clipPath><clipPath id="2"><path id="" clip-rule="evenodd" transform="matrix(1 0 0 1 0 0)" d="M0 0L841.8878 0L841.8878 0L841.8878 595.2756L841.8878 595.2756L0 595.2756L0 595.2756L0 0z" /></clipPath><clipPath id="3"><path id="" clip-rule="evenodd" transform="matrix(1 0 0 1 0 0)" d="M0 0L841.8878 0L841.8878 0L841.8878 595.2756L841.8878 595.2756L0 595.2756z" /></clipPath><clipPath id="4"><path id="" clip-rule="evenodd" transform="matrix(1 0 0 1 0 0)" d="M37.85818 49.84521L217.6786 49.84521L217.6786 49.84521L217.6786 106.7409L217.6786 106.7409L37.85818 106.7409z" /></clipPath><clipPath id="5"><path id="" clip-rule="evenodd" transform="matrix(1 0 0 1 0 0)" d="M37.85818 137.619L217.6764 137.619L217.6764 137.619L217.6764 193.9839L217.6764 193.9839L37.85818 193.9839z" /></clipPath><clipPath id="6"><path id="" clip-rule="evenodd" transform="matrix(1 0 0 1 0 0)" d="M37.85818 447.9626L193.4011 447.9626L193.4011 447.9626L193.4011 536.4213L193.4011 536.4213L37.85818 536.4213z" /></clipPath></defs><g transform="matrix(1.333333 0 0 1.333333 0 0)"><g clip-path="url(#1)"><g clip-path="url(#2)"><path id="1" transform="matrix(1 0 0 -1 0 595)" d="M0 595L841.8878 595L841.8878 595L841.8878 -0.2755737L841.8878 -0.2755737L0 -0.2755737z" stroke="none" fill="#000000" fill-rule="evenodd" fill-opacity="0" /><g clip-path="url(#3)"><g transform="matrix(0.3367551 0 0 0.3570939 0 0)"><g transform="matrix(1 0 0 1 0 0)"><image x="0" y="0" xlink:href="img_01.png" width="2500" height="1667" /></g></g></g><path id="3" transform="matrix(1 0 0 -1 0 595)" d="M27.50978 370.2101L370.0523 370.2101L370.0523 370.2101L370.0523 189.7376L370.0523 189.7376L27.50978 189.7376z" stroke="none" fill="#000000" fill-rule="evenodd" fill-opacity="0" /><path id="137" transform="matrix(1 0 0 -1 0 595)" d="M213.4956 155.316L586.0616 155.316L586.0616 155.316L586.0616 29.2215L586.0616 29.2215L213.4956 29.2215z" stroke="none" fill="#000000" fill-rule="evenodd" fill-opacity="0" /><path id="259" transform="matrix(1 0 0 -1 0 595)" d="M-0.007873997 17.30707L841.8799 17.30707L841.8799 17.30707L841.8799 -0.2677002L841.8799 -0.2677002L-0.007873997 -0.2677002z" stroke="none" fill="#0059A5" fill-rule="evenodd" /><path id="260" transform="matrix(1 0 0 -1 0 595)" d="M37.85818 545.1548L217.6786 545.1548L217.6786 545.1548L217.6786 488.2591L217.6786 488.2591L37.85818 488.2591z" stroke="none" fill="#000000" fill-rule="evenodd" fill-opacity="0" /><g clip-path="url(#4)"><g transform="matrix(0.08780295 0 0 0.08780196 37.85818 49.84521)"><g transform="matrix(1 0 0 1 0 0)"><image x="0" y="0" xlink:href="img_02.png" width="2048" height="648" /></g></g></g><path id="262" transform="matrix(1 0 0 -1 0 595)" d="M37.85818 457.381L217.6764 457.381L217.6764 457.381L217.6764 401.0161L217.6764 401.0161L37.85818 401.0161z" stroke="none" fill="#000000" fill-rule="evenodd" fill-opacity="0" /><g clip-path="url(#5)"><g transform="matrix(0.2281957 0 0 0.2281982 37.85818 137.619)"><g transform="matrix(1 0 0 1 0 0)"><image x="0" y="0" xlink:href="img_03.png" width="788" height="247" /></g></g></g><path id="264" transform="matrix(1 0 0 -1 0 595)" d="M37.85818 147.0374L193.4011 147.0374L193.4011 147.0374L193.4011 58.57874L193.4011 58.57874L37.85818 58.57874z" stroke="none" fill="#000000" fill-rule="evenodd" fill-opacity="0" /><g clip-path="url(#6)"><g transform="matrix(0.5936753 0 0 0.5936823 37.85818 447.9626)"><g transform="matrix(1 0 0 1 0 0)"><image x="0" y="0" xlink:href="img_04.png" width="262" height="149" /></g></g></g></g></g></g></svg>