<svg xmlns="http://www.w3.org/2000/svg" xmlns:xlink="http://www.w3.org/1999/xlink" id="body_1" preserveAspectRatio="xMinYMin meet" viewBox="0 0 1121 793"><defs><clipPath id="1"><path id="" clip-rule="evenodd" transform="matrix(1 0 0 1 0 0)" d="M0 595L0 0L0 0L841 0L841 0L841 595L841 595L0 595z" /></clipPath><clipPath id="2"><path id="" clip-rule="evenodd" transform="matrix(1 0 0 1 0 0)" d="M0 0L841.8878 0L841.8878 0L841.8878 595.2756L841.8878 595.2756L0 595.2756L0 595.2756L0 0z" /></clipPath><clipPath id="3"><path id="" clip-rule="evenodd" transform="matrix(1 0 0 1 0 0)" d="M0 0L841.8878 0L841.8878 0L841.8878 595.2756L841.8878 595.2756L0 595.2756z" /></clipPath><clipPath id="4"><path id="" clip-rule="evenodd" transform="matrix(1 0 0 1 0 0)" d="M719.0872 17.66559L811.8557 17.66559L811.8557 17.66559L811.8557 46.74396L811.8557 46.74396L719.0872 46.74396z" /></clipPath></defs><g transform="matrix(1.333333 0 0 1.333333 0 0)"><g clip-path="url(#1)"><g clip-path="url(#2)"><path id="1" transform="matrix(1 0 0 -1 0 595)" d="M0 595L841.8878 595L841.8878 595L841.8878 -0.2755737L841.8878 -0.2755737L0 -0.2755737z" stroke="none" fill="#000000" fill-rule="evenodd" fill-opacity="0" /><g clip-path="url(#3)"><g transform="matrix(0.3367551 0 0 0.4233823 0 0)"><g transform="matrix(1 0 0 1 0 0)"><image x="0" y="0" xlink:href="img_01.png" width="2500" height="1406" /></g></g></g><g transform="matrix(0.732707 0 0 0.7326258 55.87884 96.41577)"><g transform="matrix(1 0 0 1 0 0)"><image x="0" y="0" xlink:href="img_02.png" width="1000" height="138" /></g></g><path id="4" transform="matrix(1 0 0 -1 0 595)" d="M60.37883 495.5843L784.0858 495.5843L784.0858 495.5843L784.0858 403.4819L784.0858 403.4819L60.37883 403.4819z" stroke="none" fill="#000000" fill-rule="evenodd" fill-opacity="0" /><g transform="matrix(0.732707 0 0 0.7279019 55.87852 226.2872)"><g transform="matrix(1 0 0 1 0 0)"><image x="0" y="0" xlink:href="img_03.png" width="1000" height="124" /></g></g><path id="52" transform="matrix(1 0 0 -1 0 595)" d="M60.37852 352.1693L60.37852 352.1693C 60.37852 359.6492 66.44217 365.7128 73.92206 365.7128L73.92206 365.7128L770.5419 365.7128C 774.1339 365.7128 777.5787 364.2859 780.1187 361.746C 782.6586 359.2061 784.0855 355.7612 784.0855 352.1693L784.0855 352.1693L784.0855 297.9966C 784.0855 290.5167 778.0219 284.453 770.5419 284.453L770.5419 284.453L73.92206 284.453C 66.44217 284.453 60.37852 290.5167 60.37852 297.9966z" stroke="none" fill="#FFFFFF" fill-rule="evenodd" /><g transform="matrix(0.732707 0 0 0.7279019 55.87852 326.0134)"><g transform="matrix(1 0 0 1 0 0)"><image x="0" y="0" xlink:href="img_03.png" width="1000" height="124" /></g></g><path id="54" transform="matrix(1 0 0 -1 0 595)" d="M60.37852 252.443L60.37852 252.443C 60.37852 259.9229 66.44217 265.9866 73.92206 265.9866L73.92206 265.9866L770.5419 265.9866C 774.1339 265.9866 777.5787 264.5597 780.1187 262.0198C 782.6586 259.4799 784.0855 256.035 784.0855 252.443L784.0855 252.443L784.0855 198.2704C 784.0855 190.7904 778.0219 184.7268 770.5419 184.7268L770.5419 184.7268L73.92206 184.7268C 66.44217 184.7268 60.37852 190.7904 60.37852 198.2704z" stroke="none" fill="#FFFFFF" fill-rule="evenodd" /><g transform="matrix(0.732707 0 0 0.7279019 55.87852 425.6242)"><g transform="matrix(1 0 0 1 0 0)"><image x="0" y="0" xlink:href="img_03.png" width="1000" height="124" /></g></g><path id="56" transform="matrix(1 0 0 -1 0 595)" d="M60.37852 152.8322L60.37852 152.8322C 60.37852 160.3122 66.44217 166.3758 73.92206 166.3758L73.92206 166.3758L770.5419 166.3758C 774.1339 166.3758 777.5787 164.9489 780.1187 162.409C 782.6586 159.8691 784.0855 156.4243 784.0855 152.8322L784.0855 152.8322L784.0855 98.65958C 784.0855 91.17966 778.0219 85.116 770.5419 85.116L770.5419 85.116L73.92206 85.116C 66.44217 85.116 60.37852 91.17966 60.37852 98.65958z" stroke="none" fill="#FFFFFF" fill-rule="evenodd" /><path id="57" transform="matrix(1 0 0 -1 0 595)" d="M96.60284 363.6223L747.8611 363.6223L747.8611 363.6223L747.8611 290.9136L747.8611 290.9136L96.60284 290.9136z" stroke="none" fill="#000000" fill-rule="evenodd" fill-opacity="0" /><path id="112" transform="matrix(1 0 0 -1 0 595)" d="M96.60284 248.0994L747.8611 248.0994L747.8611 248.0994L747.8611 204.4695L747.8611 204.4695L96.60284 204.4695z" stroke="none" fill="#000000" fill-rule="evenodd" fill-opacity="0" /><path id="150" transform="matrix(1 0 0 -1 0 595)" d="M96.60284 148.4886L747.8611 148.4886L747.8611 148.4886L747.8611 104.8587L747.8611 104.8587L96.60284 104.8587z" stroke="none" fill="#000000" fill-rule="evenodd" fill-opacity="0" /><path id="191" transform="matrix(1 0 0 -1 0 595)" d="M719.0872 577.3344L811.8557 577.3344L811.8557 577.3344L811.8557 548.256L811.8557 548.256L719.0872 548.256z" stroke="none" fill="#000000" fill-rule="evenodd" fill-opacity="0" /><g clip-path="url(#4)"><g transform="matrix(0.1177264 0 0 0.1177261 719.0872 17.66559)"><g transform="matrix(1 0 0 1 0 0)"><image x="0" y="0" xlink:href="img_04.png" width="788" height="247" /></g></g></g></g></g></g></svg>