<svg xmlns="http://www.w3.org/2000/svg" xmlns:xlink="http://www.w3.org/1999/xlink" id="body_1" preserveAspectRatio="xMinYMin meet" viewBox="0 0 1121 793"><defs><clipPath id="1"><path id="" clip-rule="evenodd" transform="matrix(1 0 0 1 0 0)" d="M0 595L0 0L0 0L841 0L841 0L841 595L841 595L0 595z" /></clipPath><clipPath id="2"><path id="" clip-rule="evenodd" transform="matrix(1 0 0 1 0 0)" d="M0 0L841.8878 0L841.8878 0L841.8878 595.2756L841.8878 595.2756L0 595.2756L0 595.2756L0 0z" /></clipPath><clipPath id="3"><path id="" clip-rule="evenodd" transform="matrix(1 0 0 1 0 0)" d="M0 0L841.8878 0L841.8878 0L841.8878 595.2756L841.8878 595.2756L0 595.2756z" /></clipPath><clipPath id="4"><path id="" clip-rule="evenodd" transform="matrix(1 0 0 1 0 0)" d="M719.0868 17.66522L811.8561 17.66522L811.8561 17.66522L811.8561 46.74365L811.8561 46.74365L719.0868 46.74365z" /></clipPath></defs><g transform="matrix(1.333333 0 0 1.333333 0 0)"><g clip-path="url(#1)"><g clip-path="url(#2)"><path id="1" transform="matrix(1 0 0 -1 0 595)" d="M0 595L841.8878 595L841.8878 595L841.8878 -0.2755737L841.8878 -0.2755737L0 -0.2755737z" stroke="none" fill="#000000" fill-rule="evenodd" fill-opacity="0" /><g clip-path="url(#3)"><g transform="matrix(0.3367551 0 0 0.3366943 0 0)"><g transform="matrix(1 0 0 1 0 0)"><image x="0" y="0" xlink:href="img_01.png" width="2500" height="1768" /></g></g></g><path id="3" transform="matrix(1 0 0 -1 0 595)" d="M27.48812 569.7382L182.5193 569.7382L182.5193 569.7382L182.5193 518.8327L182.5193 518.8327L27.48812 518.8327z" stroke="none" fill="#000000" fill-rule="evenodd" fill-opacity="0" /><path id="9" transform="matrix(1 0 0 -1 0 595)" d="M141.4918 538.7657L817.8603 538.7657L817.8603 538.7657L817.8603 533.7343L817.8603 533.7343L141.4918 533.7343z" stroke="none" fill="#0059A5" fill-rule="evenodd" /><path id="10" transform="matrix(1 0 0 -1 0 595)" d="M-0.007873997 17.30707L841.8799 17.30707L841.8799 17.30707L841.8799 -0.2677002L841.8799 -0.2677002L-0.007873997 -0.2677002z" stroke="none" fill="#0059A5" fill-rule="evenodd" /><path id="11" transform="matrix(1 0 0 -1 0 595)" d="M27.48812 528.8591L817.8327 528.8591L817.8327 528.8591L817.8327 493.7094L817.8327 493.7094L27.48812 493.7094z" stroke="none" fill="#000000" fill-rule="evenodd" fill-opacity="0" /><path id="40" transform="matrix(1 0 0 -1 0 595)" d="M28.81096 467.5148L28.81096 467.5148C 28.81096 472.1467 32.56583 475.9016 37.1977 475.9016L37.1977 475.9016L274.337 475.9016C 276.5613 475.9016 278.6945 475.018 280.2673 473.4452C 281.8401 471.8723 282.7237 469.7391 282.7237 467.5148L282.7237 467.5148L282.7237 43.50092C 282.7237 38.86902 278.9689 35.1142 274.337 35.1142L274.337 35.1142L37.1977 35.1142L37.1977 35.1142L37.1977 35.1142C 32.56583 35.1142 28.81096 38.86902 28.81096 43.50092z" stroke="none" fill="#FFFFFF" fill-rule="evenodd" /><path id="41" transform="matrix(1 0 0 -1 0 595)" d="M28.81096 467.5148L28.81096 467.5148C 28.81096 472.1467 32.56583 475.9016 37.1977 475.9016L37.1977 475.9016L274.337 475.9016C 276.5613 475.9016 278.6945 475.018 280.2673 473.4452C 281.8401 471.8723 282.7237 469.7391 282.7237 467.5148L282.7237 467.5148L282.7237 43.50092C 282.7237 38.86902 278.9689 35.1142 274.337 35.1142L274.337 35.1142L37.1977 35.1142L37.1977 35.1142L37.1977 35.1142C 32.56583 35.1142 28.81096 38.86902 28.81096 43.50092z" stroke="#0059A5" stroke-width="0.7499982" fill="none" /><path id="42" transform="matrix(1 0 0 -1 0 595)" d="M297.0251 467.5148L297.0251 467.5148C 297.0251 472.1467 300.7799 475.9016 305.4118 475.9016L305.4118 475.9016L542.5511 475.9016C 544.7754 475.9016 546.9086 475.018 548.4814 473.4452C 550.0543 471.8723 550.9379 469.7391 550.9379 467.5148L550.9379 467.5148L550.9379 43.50092C 550.9379 38.86902 547.1829 35.1142 542.5511 35.1142L542.5511 35.1142L305.4118 35.1142L305.4118 35.1142L305.4118 35.1142C 300.7799 35.1142 297.0251 38.86902 297.0251 43.50092z" stroke="none" fill="#FFFFFF" fill-rule="evenodd" /><path id="43" transform="matrix(1 0 0 -1 0 595)" d="M297.0251 467.5148L297.0251 467.5148C 297.0251 472.1467 300.7799 475.9016 305.4118 475.9016L305.4118 475.9016L542.5511 475.9016C 544.7754 475.9016 546.9086 475.018 548.4814 473.4452C 550.0543 471.8723 550.9379 469.7391 550.9379 467.5148L550.9379 467.5148L550.9379 43.50092C 550.9379 38.86902 547.1829 35.1142 542.5511 35.1142L542.5511 35.1142L305.4118 35.1142L305.4118 35.1142L305.4118 35.1142C 300.7799 35.1142 297.0251 38.86902 297.0251 43.50092z" stroke="#0059A5" stroke-width="0.7499982" fill="none" /><path id="44" transform="matrix(1 0 0 -1 0 595)" d="M565.2392 467.5148L565.2392 467.5148C 565.2392 472.1467 568.9941 475.9016 573.626 475.9016L573.626 475.9016L810.7653 475.9016C 812.9896 475.9016 815.1227 475.018 816.6956 473.4452C 818.2684 471.8723 819.152 469.7391 819.152 467.5148L819.152 467.5148L819.152 43.50092C 819.152 38.86902 815.3971 35.1142 810.7653 35.1142L810.7653 35.1142L573.626 35.1142L573.626 35.1142L573.626 35.1142C 568.9941 35.1142 565.2392 38.86902 565.2392 43.50092z" stroke="none" fill="#FFFFFF" fill-rule="evenodd" /><path id="45" transform="matrix(1 0 0 -1 0 595)" d="M565.2392 467.5148L565.2392 467.5148C 565.2392 472.1467 568.9941 475.9016 573.626 475.9016L573.626 475.9016L810.7653 475.9016C 812.9896 475.9016 815.1227 475.018 816.6956 473.4452C 818.2684 471.8723 819.152 469.7391 819.152 467.5148L819.152 467.5148L819.152 43.50092C 819.152 38.86902 815.3971 35.1142 810.7653 35.1142L810.7653 35.1142L573.626 35.1142L573.626 35.1142L573.626 35.1142C 568.9941 35.1142 565.2392 38.86902 565.2392 43.50092z" stroke="#0059A5" stroke-width="0.7499982" fill="none" /><path id="46" transform="matrix(1 0 0 -1 0 595)" d="M39.23368 469.4137L275.4536 469.4137L275.4536 469.4137L275.4536 401.5475L275.4536 401.5475L39.23368 401.5475z" stroke="none" fill="#000000" fill-rule="evenodd" fill-opacity="0" /><path id="124" transform="matrix(1 0 0 -1 0 595)" d="M44.43887 401.7281L44.43887 309.3639" stroke="#D9D9D9" stroke-width="0.7499982" fill="none" /><path id="125" transform="matrix(1 0 0 -1 0 595)" d="M202.2279 401.7281L202.2279 309.3639" stroke="#D9D9D9" stroke-width="0.7499982" fill="none" /><path id="126" transform="matrix(1 0 0 -1 0 595)" d="M236.9443 401.7281L236.9443 309.3639" stroke="#D9D9D9" stroke-width="0.7499982" fill="none" /><path id="127" transform="matrix(1 0 0 -1 0 595)" d="M269.149 401.7281L269.149 309.3639" stroke="#D9D9D9" stroke-width="0.7499982" fill="none" /><path id="128" transform="matrix(1 0 0 -1 0 595)" d="M44.06486 401.3541L269.523 401.3541" stroke="#D9D9D9" stroke-width="0.7499982" fill="none" /><path id="129" transform="matrix(1 0 0 -1 0 595)" d="M44.06486 372.9742L269.523 372.9742" stroke="#D9D9D9" stroke-width="0.7499982" fill="none" /><path id="130" transform="matrix(1 0 0 -1 0 595)" d="M44.06486 344.5942L269.523 344.5942" stroke="#D9D9D9" stroke-width="0.7499982" fill="none" /><path id="131" transform="matrix(1 0 0 -1 0 595)" d="M44.06486 326.3285L269.523 326.3285" stroke="#D9D9D9" stroke-width="0.7499982" fill="none" /><path id="132" transform="matrix(1 0 0 -1 0 595)" d="M44.06486 309.7379L269.523 309.7379" stroke="#D9D9D9" stroke-width="0.7499982" fill="none" /><path id="244" transform="matrix(1 0 0 -1 0 595)" d="M39.23368 307.0318L275.4536 307.0318L275.4536 307.0318L275.4536 279.1578L275.4536 279.1578L39.23368 279.1578z" stroke="none" fill="#000000" fill-rule="evenodd" fill-opacity="0" /><path id="264" transform="matrix(1 0 0 -1 0 595)" d="M202.2269 280.3622L270.2189 280.3622L270.2189 264.6122L202.2269 264.6122L202.2269 280.3622z" stroke="none" fill="#FFFFFF" fill-rule="nonzero" /><path id="265" transform="matrix(1 0 0 -1 0 595)" d="M44.46942 264.6122L202.2269 264.6122L202.2269 248.8622L44.46942 248.8622L44.46942 264.6122z" stroke="none" fill="#FFFFFF" fill-rule="nonzero" /><path id="266" transform="matrix(1 0 0 -1 0 595)" d="M202.2269 264.6122L270.2189 264.6122L270.2189 248.8622L202.2269 248.8622L202.2269 264.6122z" stroke="none" fill="#FFFFFF" fill-rule="nonzero" /><path id="267" transform="matrix(1 0 0 -1 0 595)" d="M44.46942 248.8622L202.2269 248.8622L202.2269 233.1122L44.46942 233.1122L44.46942 248.8622z" stroke="none" fill="#FFFFFF" fill-rule="nonzero" /><path id="268" transform="matrix(1 0 0 -1 0 595)" d="M202.2269 248.8622L270.2189 248.8622L270.2189 233.1122L202.2269 233.1122L202.2269 248.8622z" stroke="none" fill="#FFFFFF" fill-rule="nonzero" /><path id="269" transform="matrix(1 0 0 -1 0 595)" d="M44.46942 233.1122L202.2269 233.1122L202.2269 217.3622L44.46942 217.3622L44.46942 233.1122z" stroke="none" fill="#FFFFFF" fill-rule="nonzero" /><path id="270" transform="matrix(1 0 0 -1 0 595)" d="M202.2269 233.1122L270.2189 233.1122L270.2189 217.3622L202.2269 217.3622L202.2269 233.1122z" stroke="none" fill="#FFFFFF" fill-rule="nonzero" /><path id="271" transform="matrix(1 0 0 -1 0 595)" d="M202.2269 217.3622L270.2189 217.3622L270.2189 201.6122L202.2269 201.6122L202.2269 217.3622z" stroke="none" fill="#FFFFFF" fill-rule="nonzero" /><path id="272" transform="matrix(1 0 0 -1 0 595)" d="M202.2269 201.6122L270.2189 201.6122L270.2189 185.8622L202.2269 185.8622L202.2269 201.6122z" stroke="none" fill="#FFFFFF" fill-rule="nonzero" /><path id="273" transform="matrix(1 0 0 -1 0 595)" d="M44.46942 280.7362L44.46942 185.4882" stroke="#D9D9D9" stroke-width="0.7499982" fill="none" /><path id="274" transform="matrix(1 0 0 -1 0 595)" d="M202.2269 280.7362L202.2269 185.4882" stroke="#D9D9D9" stroke-width="0.7499982" fill="none" /><path id="275" transform="matrix(1 0 0 -1 0 595)" d="M270.2189 280.7362L270.2189 185.4882" stroke="#D9D9D9" stroke-width="0.7499982" fill="none" /><path id="276" transform="matrix(1 0 0 -1 0 595)" d="M44.09541 280.3622L270.5929 280.3622" stroke="#D9D9D9" stroke-width="0.7499982" fill="none" /><path id="277" transform="matrix(1 0 0 -1 0 595)" d="M44.09541 264.6122L270.5929 264.6122" stroke="#D9D9D9" stroke-width="0.7499982" fill="none" /><path id="278" transform="matrix(1 0 0 -1 0 595)" d="M44.09541 248.8622L270.5929 248.8622" stroke="#D9D9D9" stroke-width="0.7499982" fill="none" /><path id="279" transform="matrix(1 0 0 -1 0 595)" d="M44.09541 233.1122L270.5929 233.1122" stroke="#D9D9D9" stroke-width="0.7499982" fill="none" /><path id="280" transform="matrix(1 0 0 -1 0 595)" d="M44.09541 217.3622L270.5929 217.3622" stroke="#D9D9D9" stroke-width="0.7499982" fill="none" /><path id="281" transform="matrix(1 0 0 -1 0 595)" d="M44.09541 201.6122L270.5929 201.6122" stroke="#D9D9D9" stroke-width="0.7499982" fill="none" /><path id="282" transform="matrix(1 0 0 -1 0 595)" d="M44.09541 185.8622L270.5929 185.8622" stroke="#D9D9D9" stroke-width="0.7499982" fill="none" /><path id="416" transform="matrix(1 0 0 -1 0 595)" d="M44.47037 172.0574L202.2279 172.0574L202.2279 156.3074L44.47037 156.3074L44.47037 172.0574z" stroke="none" fill="#FFFFFF" fill-rule="nonzero" /><path id="417" transform="matrix(1 0 0 -1 0 595)" d="M202.2279 172.0574L270.2198 172.0574L270.2198 156.3074L202.2279 156.3074L202.2279 172.0574z" stroke="none" fill="#FFFFFF" fill-rule="nonzero" /><path id="418" transform="matrix(1 0 0 -1 0 595)" d="M44.47037 156.3074L202.2279 156.3074L202.2279 140.5574L44.47037 140.5574L44.47037 156.3074z" stroke="none" fill="#FFFFFF" fill-rule="nonzero" /><path id="419" transform="matrix(1 0 0 -1 0 595)" d="M202.2279 156.3074L270.2198 156.3074L270.2198 140.5574L202.2279 140.5574L202.2279 156.3074z" stroke="none" fill="#FFFFFF" fill-rule="nonzero" /><path id="420" transform="matrix(1 0 0 -1 0 595)" d="M44.47037 172.4314L44.47037 140.1834" stroke="#D9D9D9" stroke-width="0.7499982" fill="none" /><path id="421" transform="matrix(1 0 0 -1 0 595)" d="M202.2279 172.4314L202.2279 140.1834" stroke="#D9D9D9" stroke-width="0.7499982" fill="none" /><path id="422" transform="matrix(1 0 0 -1 0 595)" d="M270.2198 172.4314L270.2198 140.1834" stroke="#D9D9D9" stroke-width="0.7499982" fill="none" /><path id="423" transform="matrix(1 0 0 -1 0 595)" d="M44.09635 172.0574L270.5938 172.0574" stroke="#D9D9D9" stroke-width="0.7499982" fill="none" /><path id="424" transform="matrix(1 0 0 -1 0 595)" d="M44.09635 156.3074L270.5938 156.3074" stroke="#D9D9D9" stroke-width="0.7499982" fill="none" /><path id="425" transform="matrix(1 0 0 -1 0 595)" d="M44.09635 140.5574L270.5938 140.5574" stroke="#D9D9D9" stroke-width="0.7499982" fill="none" /><path id="479" transform="matrix(1 0 0 -1 0 595)" d="M39.23416 138.752L275.4541 138.752L275.4541 138.752L275.4541 49.55511L275.4541 49.55511L39.23416 49.55511z" stroke="none" fill="#000000" fill-rule="evenodd" fill-opacity="0" /><path id="526" transform="matrix(1 0 0 -1 0 595)" d="M45.98414 101.7225L263.7592 101.7225L263.7592 88.32294L45.98414 88.32294L45.98414 101.7225z" stroke="none" fill="#010000" fill-rule="nonzero" fill-opacity="0" /><path id="565" transform="matrix(1 0 0 -1 0 595)" d="M45.98414 90.36699L263.7592 90.36699L263.7592 89.37698L45.98414 89.37698L45.98414 90.36699z" stroke="none" fill="#0097A7" fill-rule="nonzero" /><path id="566" transform="matrix(1 0 0 -1 0 595)" d="M45.98414 86.54247L263.4645 86.54247L263.4645 73.14294L45.98414 73.14294L45.98414 86.54247z" stroke="none" fill="#010000" fill-rule="nonzero" fill-opacity="0" /><path id="602" transform="matrix(1 0 0 -1 0 595)" d="M45.98414 75.18699L263.4645 75.18699L263.4645 74.19699L45.98414 74.19699L45.98414 75.18699z" stroke="none" fill="#0097A7" fill-rule="nonzero" /><path id="603" transform="matrix(1 0 0 -1 0 595)" d="M45.98414 71.36246L154.741 71.36246L154.741 57.96294L45.98414 57.96294L45.98414 71.36246z" stroke="none" fill="#010000" fill-rule="nonzero" fill-opacity="0" /><path id="623" transform="matrix(1 0 0 -1 0 595)" d="M45.98414 60.00699L154.741 60.00699L154.741 59.01699L45.98414 59.01699L45.98414 60.00699z" stroke="none" fill="#0097A7" fill-rule="nonzero" /><path id="624" transform="matrix(1 0 0 -1 0 595)" d="M305.8841 469.2744L542.1039 469.2744L542.1039 469.2744L542.1039 414.7311L542.1039 414.7311L305.8841 414.7311z" stroke="none" fill="#000000" fill-rule="evenodd" fill-opacity="0" /><path id="682" transform="matrix(1 0 0 -1 0 595)" d="M311.0893 414.1473L311.0893 321.7832" stroke="#D9D9D9" stroke-width="0.7499982" fill="none" /><path id="683" transform="matrix(1 0 0 -1 0 595)" d="M468.8783 414.1473L468.8783 321.7832" stroke="#D9D9D9" stroke-width="0.7499982" fill="none" /><path id="684" transform="matrix(1 0 0 -1 0 595)" d="M503.5947 414.1473L503.5947 321.7832" stroke="#D9D9D9" stroke-width="0.7499982" fill="none" /><path id="685" transform="matrix(1 0 0 -1 0 595)" d="M535.7994 414.1473L535.7994 321.7832" stroke="#D9D9D9" stroke-width="0.7499982" fill="none" /><path id="686" transform="matrix(1 0 0 -1 0 595)" d="M310.7152 413.7733L536.1734 413.7733" stroke="#D9D9D9" stroke-width="0.7499982" fill="none" /><path id="687" transform="matrix(1 0 0 -1 0 595)" d="M310.7152 385.3934L536.1734 385.3934" stroke="#D9D9D9" stroke-width="0.7499982" fill="none" /><path id="688" transform="matrix(1 0 0 -1 0 595)" d="M310.7152 357.0135L536.1734 357.0135" stroke="#D9D9D9" stroke-width="0.7499982" fill="none" /><path id="689" transform="matrix(1 0 0 -1 0 595)" d="M310.7152 338.7477L536.1734 338.7477" stroke="#D9D9D9" stroke-width="0.7499982" fill="none" /><path id="690" transform="matrix(1 0 0 -1 0 595)" d="M310.7152 322.1572L536.1734 322.1572" stroke="#D9D9D9" stroke-width="0.7499982" fill="none" /><path id="798" transform="matrix(1 0 0 -1 0 595)" d="M305.8841 319.451L542.1039 319.451L542.1039 319.451L542.1039 291.577L542.1039 291.577L305.8841 291.577z" stroke="none" fill="#000000" fill-rule="evenodd" fill-opacity="0" /><path id="818" transform="matrix(1 0 0 -1 0 595)" d="M468.8773 292.7814L536.8693 292.7814L536.8693 277.0314L468.8773 277.0314L468.8773 292.7814z" stroke="none" fill="#FFFFFF" fill-rule="nonzero" /><path id="819" transform="matrix(1 0 0 -1 0 595)" d="M311.1198 277.0314L468.8773 277.0314L468.8773 261.2814L311.1198 261.2814L311.1198 277.0314z" stroke="none" fill="#FFFFFF" fill-rule="nonzero" /><path id="820" transform="matrix(1 0 0 -1 0 595)" d="M468.8773 277.0314L536.8693 277.0314L536.8693 261.2814L468.8773 261.2814L468.8773 277.0314z" stroke="none" fill="#FFFFFF" fill-rule="nonzero" /><path id="821" transform="matrix(1 0 0 -1 0 595)" d="M311.1198 261.2814L468.8773 261.2814L468.8773 245.5314L311.1198 245.5314L311.1198 261.2814z" stroke="none" fill="#FFFFFF" fill-rule="nonzero" /><path id="822" transform="matrix(1 0 0 -1 0 595)" d="M468.8773 261.2814L536.8693 261.2814L536.8693 245.5314L468.8773 245.5314L468.8773 261.2814z" stroke="none" fill="#FFFFFF" fill-rule="nonzero" /><path id="823" transform="matrix(1 0 0 -1 0 595)" d="M311.1198 245.5314L468.8773 245.5314L468.8773 229.7814L311.1198 229.7814L311.1198 245.5314z" stroke="none" fill="#FFFFFF" fill-rule="nonzero" /><path id="824" transform="matrix(1 0 0 -1 0 595)" d="M468.8773 245.5314L536.8693 245.5314L536.8693 229.7814L468.8773 229.7814L468.8773 245.5314z" stroke="none" fill="#FFFFFF" fill-rule="nonzero" /><path id="825" transform="matrix(1 0 0 -1 0 595)" d="M468.8773 229.7814L536.8693 229.7814L536.8693 214.0314L468.8773 214.0314L468.8773 229.7814z" stroke="none" fill="#FFFFFF" fill-rule="nonzero" /><path id="826" transform="matrix(1 0 0 -1 0 595)" d="M468.8773 214.0314L536.8693 214.0314L536.8693 198.2814L468.8773 198.2814L468.8773 214.0314z" stroke="none" fill="#FFFFFF" fill-rule="nonzero" /><path id="827" transform="matrix(1 0 0 -1 0 595)" d="M468.8773 198.2814L536.8693 198.2814L536.8693 182.5314L468.8773 182.5314L468.8773 198.2814z" stroke="none" fill="#FFFFFF" fill-rule="nonzero" /><path id="828" transform="matrix(1 0 0 -1 0 595)" d="M311.1198 293.1554L311.1198 182.1574" stroke="#D9D9D9" stroke-width="0.7499982" fill="none" /><path id="829" transform="matrix(1 0 0 -1 0 595)" d="M468.8773 293.1554L468.8773 182.1574" stroke="#D9D9D9" stroke-width="0.7499982" fill="none" /><path id="830" transform="matrix(1 0 0 -1 0 595)" d="M536.8693 293.1554L536.8693 182.1574" stroke="#D9D9D9" stroke-width="0.7499982" fill="none" /><path id="831" transform="matrix(1 0 0 -1 0 595)" d="M310.7458 292.7814L537.2433 292.7814" stroke="#D9D9D9" stroke-width="0.7499982" fill="none" /><path id="832" transform="matrix(1 0 0 -1 0 595)" d="M310.7458 277.0314L537.2433 277.0314" stroke="#D9D9D9" stroke-width="0.7499982" fill="none" /><path id="833" transform="matrix(1 0 0 -1 0 595)" d="M310.7458 261.2814L537.2433 261.2814" stroke="#D9D9D9" stroke-width="0.7499982" fill="none" /><path id="834" transform="matrix(1 0 0 -1 0 595)" d="M310.7458 245.5314L537.2433 245.5314" stroke="#D9D9D9" stroke-width="0.7499982" fill="none" /><path id="835" transform="matrix(1 0 0 -1 0 595)" d="M310.7458 229.7814L537.2433 229.7814" stroke="#D9D9D9" stroke-width="0.7499982" fill="none" /><path id="836" transform="matrix(1 0 0 -1 0 595)" d="M310.7458 214.0314L537.2433 214.0314" stroke="#D9D9D9" stroke-width="0.7499982" fill="none" /><path id="837" transform="matrix(1 0 0 -1 0 595)" d="M310.7458 198.2814L537.2433 198.2814" stroke="#D9D9D9" stroke-width="0.7499982" fill="none" /><path id="838" transform="matrix(1 0 0 -1 0 595)" d="M310.7458 182.5314L537.2433 182.5314" stroke="#D9D9D9" stroke-width="0.7499982" fill="none" /><path id="987" transform="matrix(1 0 0 -1 0 595)" d="M311.1208 171.918L468.8783 171.918L468.8783 156.168L311.1208 156.168L311.1208 171.918z" stroke="none" fill="#FFFFFF" fill-rule="nonzero" /><path id="988" transform="matrix(1 0 0 -1 0 595)" d="M468.8783 171.918L536.8702 171.918L536.8702 156.168L468.8783 156.168L468.8783 171.918z" stroke="none" fill="#FFFFFF" fill-rule="nonzero" /><path id="989" transform="matrix(1 0 0 -1 0 595)" d="M311.1208 156.168L468.8783 156.168L468.8783 140.418L311.1208 140.418L311.1208 156.168z" stroke="none" fill="#FFFFFF" fill-rule="nonzero" /><path id="990" transform="matrix(1 0 0 -1 0 595)" d="M468.8783 156.168L536.8702 156.168L536.8702 140.418L468.8783 140.418L468.8783 156.168z" stroke="none" fill="#FFFFFF" fill-rule="nonzero" /><path id="991" transform="matrix(1 0 0 -1 0 595)" d="M311.1208 172.2921L311.1208 140.044" stroke="#D9D9D9" stroke-width="0.7499982" fill="none" /><path id="992" transform="matrix(1 0 0 -1 0 595)" d="M468.8783 172.2921L468.8783 140.044" stroke="#D9D9D9" stroke-width="0.7499982" fill="none" /><path id="993" transform="matrix(1 0 0 -1 0 595)" d="M536.8702 172.2921L536.8702 140.044" stroke="#D9D9D9" stroke-width="0.7499982" fill="none" /><path id="994" transform="matrix(1 0 0 -1 0 595)" d="M310.7467 171.918L537.2443 171.918" stroke="#D9D9D9" stroke-width="0.7499982" fill="none" /><path id="995" transform="matrix(1 0 0 -1 0 595)" d="M310.7467 156.168L537.2443 156.168" stroke="#D9D9D9" stroke-width="0.7499982" fill="none" /><path id="996" transform="matrix(1 0 0 -1 0 595)" d="M310.7467 140.418L537.2443 140.418" stroke="#D9D9D9" stroke-width="0.7499982" fill="none" /><path id="1050" transform="matrix(1 0 0 -1 0 595)" d="M305.8846 138.6126L542.1044 138.6126L542.1044 138.6126L542.1044 49.41571L542.1044 49.41571L305.8846 49.41571z" stroke="none" fill="#000000" fill-rule="evenodd" fill-opacity="0" /><path id="1097" transform="matrix(1 0 0 -1 0 595)" d="M312.6345 101.5831L530.4097 101.5831L530.4097 88.18355L312.6345 88.18355L312.6345 101.5831z" stroke="none" fill="#010000" fill-rule="nonzero" fill-opacity="0" /><path id="1136" transform="matrix(1 0 0 -1 0 595)" d="M312.6345 90.2276L530.4097 90.2276L530.4097 89.23759L312.6345 89.23759L312.6345 90.2276z" stroke="none" fill="#0097A7" fill-rule="nonzero" /><path id="1137" transform="matrix(1 0 0 -1 0 595)" d="M312.6345 86.40308L530.1149 86.40308L530.1149 73.00355L312.6345 73.00355L312.6345 86.40308z" stroke="none" fill="#010000" fill-rule="nonzero" fill-opacity="0" /><path id="1173" transform="matrix(1 0 0 -1 0 595)" d="M312.6345 75.0476L530.1149 75.0476L530.1149 74.0576L312.6345 74.0576L312.6345 75.0476z" stroke="none" fill="#0097A7" fill-rule="nonzero" /><path id="1174" transform="matrix(1 0 0 -1 0 595)" d="M312.6345 71.22308L421.3914 71.22308L421.3914 57.82355L312.6345 57.82355L312.6345 71.22308z" stroke="none" fill="#010000" fill-rule="nonzero" fill-opacity="0" /><path id="1193" transform="matrix(1 0 0 -1 0 595)" d="M421.3914 71.22308L424.2713 71.22308L424.2713 57.82355L421.3914 57.82355L421.3914 71.22308z" stroke="none" fill="#010000" fill-rule="nonzero" fill-opacity="0" /><path id="1195" transform="matrix(1 0 0 -1 0 595)" d="M312.6345 59.8676L421.3914 59.8676L421.3914 58.8776L312.6345 58.8776L312.6345 59.8676z" stroke="none" fill="#0097A7" fill-rule="nonzero" /><path id="1196" transform="matrix(1 0 0 -1 0 595)" d="M575.0462 469.2744L811.2661 469.2744L811.2661 469.2744L811.2661 414.7311L811.2661 414.7311L575.0462 414.7311z" stroke="none" fill="#000000" fill-rule="evenodd" fill-opacity="0" /><path id="1257" transform="matrix(1 0 0 -1 0 595)" d="M580.2514 414.1473L580.2514 321.7832" stroke="#D9D9D9" stroke-width="0.7499982" fill="none" /><path id="1258" transform="matrix(1 0 0 -1 0 595)" d="M738.0404 414.1473L738.0404 321.7832" stroke="#D9D9D9" stroke-width="0.7499982" fill="none" /><path id="1259" transform="matrix(1 0 0 -1 0 595)" d="M772.7568 414.1473L772.7568 321.7832" stroke="#D9D9D9" stroke-width="0.7499982" fill="none" /><path id="1260" transform="matrix(1 0 0 -1 0 595)" d="M804.9615 414.1473L804.9615 321.7832" stroke="#D9D9D9" stroke-width="0.7499982" fill="none" /><path id="1261" transform="matrix(1 0 0 -1 0 595)" d="M579.8774 413.7733L805.3355 413.7733" stroke="#D9D9D9" stroke-width="0.7499982" fill="none" /><path id="1262" transform="matrix(1 0 0 -1 0 595)" d="M579.8774 385.3934L805.3355 385.3934" stroke="#D9D9D9" stroke-width="0.7499982" fill="none" /><path id="1263" transform="matrix(1 0 0 -1 0 595)" d="M579.8774 357.0135L805.3355 357.0135" stroke="#D9D9D9" stroke-width="0.7499982" fill="none" /><path id="1264" transform="matrix(1 0 0 -1 0 595)" d="M579.8774 338.7477L805.3355 338.7477" stroke="#D9D9D9" stroke-width="0.7499982" fill="none" /><path id="1265" transform="matrix(1 0 0 -1 0 595)" d="M579.8774 322.1572L805.3355 322.1572" stroke="#D9D9D9" stroke-width="0.7499982" fill="none" /><path id="1373" transform="matrix(1 0 0 -1 0 595)" d="M575.0462 319.451L811.2661 319.451L811.2661 319.451L811.2661 291.577L811.2661 291.577L575.0462 291.577z" stroke="none" fill="#000000" fill-rule="evenodd" fill-opacity="0" /><path id="1393" transform="matrix(1 0 0 -1 0 595)" d="M738.0394 292.7814L806.0314 292.7814L806.0314 277.0314L738.0394 277.0314L738.0394 292.7814z" stroke="none" fill="#FFFFFF" fill-rule="nonzero" /><path id="1394" transform="matrix(1 0 0 -1 0 595)" d="M580.2819 277.0314L738.0394 277.0314L738.0394 261.2814L580.2819 261.2814L580.2819 277.0314z" stroke="none" fill="#FFFFFF" fill-rule="nonzero" /><path id="1395" transform="matrix(1 0 0 -1 0 595)" d="M738.0394 277.0314L806.0314 277.0314L806.0314 261.2814L738.0394 261.2814L738.0394 277.0314z" stroke="none" fill="#FFFFFF" fill-rule="nonzero" /><path id="1396" transform="matrix(1 0 0 -1 0 595)" d="M580.2819 261.2814L738.0394 261.2814L738.0394 245.5314L580.2819 245.5314L580.2819 261.2814z" stroke="none" fill="#FFFFFF" fill-rule="nonzero" /><path id="1397" transform="matrix(1 0 0 -1 0 595)" d="M738.0394 261.2814L806.0314 261.2814L806.0314 245.5314L738.0394 245.5314L738.0394 261.2814z" stroke="none" fill="#FFFFFF" fill-rule="nonzero" /><path id="1398" transform="matrix(1 0 0 -1 0 595)" d="M580.2819 245.5314L738.0394 245.5314L738.0394 229.7814L580.2819 229.7814L580.2819 245.5314z" stroke="none" fill="#FFFFFF" fill-rule="nonzero" /><path id="1399" transform="matrix(1 0 0 -1 0 595)" d="M738.0394 245.5314L806.0314 245.5314L806.0314 229.7814L738.0394 229.7814L738.0394 245.5314z" stroke="none" fill="#FFFFFF" fill-rule="nonzero" /><path id="1400" transform="matrix(1 0 0 -1 0 595)" d="M738.0394 229.7814L806.0314 229.7814L806.0314 214.0314L738.0394 214.0314L738.0394 229.7814z" stroke="none" fill="#FFFFFF" fill-rule="nonzero" /><path id="1401" transform="matrix(1 0 0 -1 0 595)" d="M738.0394 214.0314L806.0314 214.0314L806.0314 198.2814L738.0394 198.2814L738.0394 214.0314z" stroke="none" fill="#FFFFFF" fill-rule="nonzero" /><path id="1402" transform="matrix(1 0 0 -1 0 595)" d="M738.0394 198.2814L806.0314 198.2814L806.0314 182.5314L738.0394 182.5314L738.0394 198.2814z" stroke="none" fill="#FFFFFF" fill-rule="nonzero" /><path id="1403" transform="matrix(1 0 0 -1 0 595)" d="M580.2819 293.1554L580.2819 182.1574" stroke="#D9D9D9" stroke-width="0.7499982" fill="none" /><path id="1404" transform="matrix(1 0 0 -1 0 595)" d="M738.0394 293.1554L738.0394 182.1574" stroke="#D9D9D9" stroke-width="0.7499982" fill="none" /><path id="1405" transform="matrix(1 0 0 -1 0 595)" d="M806.0314 293.1554L806.0314 182.1574" stroke="#D9D9D9" stroke-width="0.7499982" fill="none" /><path id="1406" transform="matrix(1 0 0 -1 0 595)" d="M579.9079 292.7814L806.4054 292.7814" stroke="#D9D9D9" stroke-width="0.7499982" fill="none" /><path id="1407" transform="matrix(1 0 0 -1 0 595)" d="M579.9079 277.0314L806.4054 277.0314" stroke="#D9D9D9" stroke-width="0.7499982" fill="none" /><path id="1408" transform="matrix(1 0 0 -1 0 595)" d="M579.9079 261.2814L806.4054 261.2814" stroke="#D9D9D9" stroke-width="0.7499982" fill="none" /><path id="1409" transform="matrix(1 0 0 -1 0 595)" d="M579.9079 245.5314L806.4054 245.5314" stroke="#D9D9D9" stroke-width="0.7499982" fill="none" /><path id="1410" transform="matrix(1 0 0 -1 0 595)" d="M579.9079 229.7814L806.4054 229.7814" stroke="#D9D9D9" stroke-width="0.7499982" fill="none" /><path id="1411" transform="matrix(1 0 0 -1 0 595)" d="M579.9079 214.0314L806.4054 214.0314" stroke="#D9D9D9" stroke-width="0.7499982" fill="none" /><path id="1412" transform="matrix(1 0 0 -1 0 595)" d="M579.9079 198.2814L806.4054 198.2814" stroke="#D9D9D9" stroke-width="0.7499982" fill="none" /><path id="1413" transform="matrix(1 0 0 -1 0 595)" d="M579.9079 182.5314L806.4054 182.5314" stroke="#D9D9D9" stroke-width="0.7499982" fill="none" /><path id="1560" transform="matrix(1 0 0 -1 0 595)" d="M580.2829 171.918L738.0404 171.918L738.0404 156.168L580.2829 156.168L580.2829 171.918z" stroke="none" fill="#FFFFFF" fill-rule="nonzero" /><path id="1561" transform="matrix(1 0 0 -1 0 595)" d="M738.0404 171.918L806.0323 171.918L806.0323 156.168L738.0404 156.168L738.0404 171.918z" stroke="none" fill="#FFFFFF" fill-rule="nonzero" /><path id="1562" transform="matrix(1 0 0 -1 0 595)" d="M580.2829 156.168L738.0404 156.168L738.0404 140.418L580.2829 140.418L580.2829 156.168z" stroke="none" fill="#FFFFFF" fill-rule="nonzero" /><path id="1563" transform="matrix(1 0 0 -1 0 595)" d="M738.0404 156.168L806.0323 156.168L806.0323 140.418L738.0404 140.418L738.0404 156.168z" stroke="none" fill="#FFFFFF" fill-rule="nonzero" /><path id="1564" transform="matrix(1 0 0 -1 0 595)" d="M580.2829 172.2921L580.2829 140.044" stroke="#D9D9D9" stroke-width="0.7499982" fill="none" /><path id="1565" transform="matrix(1 0 0 -1 0 595)" d="M738.0404 172.2921L738.0404 140.044" stroke="#D9D9D9" stroke-width="0.7499982" fill="none" /><path id="1566" transform="matrix(1 0 0 -1 0 595)" d="M806.0323 172.2921L806.0323 140.044" stroke="#D9D9D9" stroke-width="0.7499982" fill="none" /><path id="1567" transform="matrix(1 0 0 -1 0 595)" d="M579.9089 171.918L806.4064 171.918" stroke="#D9D9D9" stroke-width="0.7499982" fill="none" /><path id="1568" transform="matrix(1 0 0 -1 0 595)" d="M579.9089 156.168L806.4064 156.168" stroke="#D9D9D9" stroke-width="0.7499982" fill="none" /><path id="1569" transform="matrix(1 0 0 -1 0 595)" d="M579.9089 140.418L806.4064 140.418" stroke="#D9D9D9" stroke-width="0.7499982" fill="none" /><path id="1624" transform="matrix(1 0 0 -1 0 595)" d="M575.0467 138.6126L811.2666 138.6126L811.2666 138.6126L811.2666 49.41571L811.2666 49.41571L575.0467 49.41571z" stroke="none" fill="#000000" fill-rule="evenodd" fill-opacity="0" /><path id="1671" transform="matrix(1 0 0 -1 0 595)" d="M581.7966 101.5831L799.5717 101.5831L799.5717 88.18355L581.7966 88.18355L581.7966 101.5831z" stroke="none" fill="#010000" fill-rule="nonzero" fill-opacity="0" /><path id="1710" transform="matrix(1 0 0 -1 0 595)" d="M581.7966 90.2276L799.5717 90.2276L799.5717 89.23759L581.7966 89.23759L581.7966 90.2276z" stroke="none" fill="#0097A7" fill-rule="nonzero" /><path id="1711" transform="matrix(1 0 0 -1 0 595)" d="M581.7966 86.40308L799.277 86.40308L799.277 73.00355L581.7966 73.00355L581.7966 86.40308z" stroke="none" fill="#010000" fill-rule="nonzero" fill-opacity="0" /><path id="1747" transform="matrix(1 0 0 -1 0 595)" d="M581.7966 75.0476L799.277 75.0476L799.277 74.0576L581.7966 74.0576L581.7966 75.0476z" stroke="none" fill="#0097A7" fill-rule="nonzero" /><path id="1748" transform="matrix(1 0 0 -1 0 595)" d="M581.7966 71.22308L690.5535 71.22308L690.5535 57.82355L581.7966 57.82355L581.7966 71.22308z" stroke="none" fill="#010000" fill-rule="nonzero" fill-opacity="0" /><path id="1768" transform="matrix(1 0 0 -1 0 595)" d="M581.7966 59.8676L690.5535 59.8676L690.5535 58.8776L581.7966 58.8776L581.7966 59.8676z" stroke="none" fill="#0097A7" fill-rule="nonzero" /><path id="1769" transform="matrix(1 0 0 -1 0 595)" d="M719.0868 577.3348L811.8561 577.3348L811.8561 577.3348L811.8561 548.2563L811.8561 548.2563L719.0868 548.2563z" stroke="none" fill="#000000" fill-rule="evenodd" fill-opacity="0" /><g clip-path="url(#4)"><g transform="matrix(0.1177276 0 0 0.1177264 719.0868 17.66522)"><g transform="matrix(1 0 0 1 0 0)"><image x="0" y="0" xlink:href="img_02.png" width="788" height="247" /></g></g></g></g></g></g></svg>