<svg xmlns="http://www.w3.org/2000/svg" xmlns:xlink="http://www.w3.org/1999/xlink" id="body_1" preserveAspectRatio="xMinYMin meet" viewBox="0 0 1121 793"><defs><clipPath id="1"><path id="" clip-rule="evenodd" transform="matrix(1 0 0 1 0 0)" d="M0 595L0 0L0 0L841 0L841 0L841 595L841 595L0 595z" /></clipPath><clipPath id="2"><path id="" clip-rule="evenodd" transform="matrix(1 0 0 1 0 0)" d="M0 0L841.8878 0L841.8878 0L841.8878 595.2756L841.8878 595.2756L0 595.2756L0 595.2756L0 0z" /></clipPath><clipPath id="3"><path id="" clip-rule="evenodd" transform="matrix(1 0 0 1 0 0)" d="M0 0L841.8878 0L841.8878 0L841.8878 595.2756L841.8878 595.2756L0 595.2756z" /></clipPath><clipPath id="4"><path id="" clip-rule="evenodd" transform="matrix(1 0 0 1 0 0)" d="M96.33245 168.1376L154.2338 168.1376L154.2338 168.1376L154.2338 207.4584L154.2338 207.4584L96.33245 207.4584z" /></clipPath><clipPath id="5"><path id="" clip-rule="evenodd" transform="matrix(1 0 0 1 0 0)" d="M297.144 170.2411L355.0454 170.2411L355.0454 170.2411L355.0454 205.355L355.0454 205.355L297.144 205.355z" /></clipPath><clipPath id="6"><path id="" clip-rule="evenodd" transform="matrix(1 0 0 1 0 0)" d="M504.8668 164.7764L548.9467 164.7764L548.9467 164.7764L548.9467 210.8197L548.9467 210.8197L504.8668 210.8197z" /></clipPath><clipPath id="7"><path id="" clip-rule="evenodd" transform="matrix(1 0 0 1 0 0)" d="M701.4088 164.7764L754.0295 164.7764L754.0295 164.7764L754.0295 210.8197L754.0295 210.8197L701.4088 210.8197z" /></clipPath><clipPath id="8"><path id="" clip-rule="evenodd" transform="matrix(1 0 0 1 0 0)" d="M98.97315 378.3266L151.5931 378.3266L151.5931 378.3266L151.5931 428.0052L151.5931 428.0052L98.97315 428.0052z" /></clipPath><clipPath id="9"><path id="" clip-rule="evenodd" transform="matrix(1 0 0 1 0 0)" d="M297.145 378.0101L355.0444 378.0101L355.0444 378.0101L355.0444 428.3228L355.0444 428.3228L297.145 428.3228z" /></clipPath><clipPath id="10"><path id="" clip-rule="evenodd" transform="matrix(1 0 0 1 0 0)" d="M504.8666 379.3344L548.9472 379.3344L548.9472 379.3344L548.9472 426.9974L548.9472 426.9974L504.8666 426.9974z" /></clipPath><clipPath id="11"><path id="" clip-rule="evenodd" transform="matrix(1 0 0 1 0 0)" d="M703.937 379.3347L751.5024 379.3347L751.5024 379.3347L751.5024 426.998L751.5024 426.998L703.937 426.998z" /></clipPath><clipPath id="12"><path id="" clip-rule="evenodd" transform="matrix(1 0 0 1 0 0)" d="M719.0868 17.66522L811.8561 17.66522L811.8561 17.66522L811.8561 46.74365L811.8561 46.74365L719.0868 46.74365z" /></clipPath></defs><g transform="matrix(1.333333 0 0 1.333333 0 0)"><g clip-path="url(#1)"><g clip-path="url(#2)"><path id="1" transform="matrix(1 0 0 -1 0 595)" d="M0 595L841.8878 595L841.8878 595L841.8878 -0.2755737L841.8878 -0.2755737L0 -0.2755737z" stroke="none" fill="#000000" fill-rule="evenodd" fill-opacity="0" /><g clip-path="url(#3)"><g transform="matrix(0.3367551 0 0 0.3366943 0 0)"><g transform="matrix(1 0 0 1 0 0)"><image x="0" y="0" xlink:href="img_01.png" width="2500" height="1768" /></g></g></g><path id="3" transform="matrix(1 0 0 -1 0 595)" d="M27.48812 569.7382L681.5102 569.7382L681.5102 569.7382L681.5102 477.0217L681.5102 477.0217L27.48812 477.0217z" stroke="none" fill="#000000" fill-rule="evenodd" fill-opacity="0" /><path id="49" transform="matrix(1 0 0 -1 0 595)" d="M674.8114 497.7405L817.8425 497.7405L817.8425 497.7405L817.8425 492.709L817.8425 492.709L674.8114 492.709z" stroke="none" fill="#0059A5" fill-rule="evenodd" /><path id="50" transform="matrix(1 0 0 -1 0 595)" d="M-0.007873997 17.30707L841.8799 17.30707L841.8799 17.30707L841.8799 -0.2677002L841.8799 -0.2677002L-0.007873997 -0.2677002z" stroke="none" fill="#0059A5" fill-rule="evenodd" /><path id="51" transform="matrix(1 0 0 -1 0 595)" d="M35.16527 437.4672L35.16527 437.4672C 35.16527 446.7883 42.72149 454.3445 52.04255 454.3445L52.04255 454.3445L198.5238 454.3445C 202.9999 454.3445 207.2927 452.5663 210.4578 449.4012C 213.6229 446.2361 215.4011 441.9433 215.4011 437.4672L215.4011 437.4672L215.4011 273.6234C 215.4011 264.3023 207.8448 256.7461 198.5238 256.7461L198.5238 256.7461L52.04255 256.7461C 42.72149 256.7461 35.16527 264.3023 35.16527 273.6234z" stroke="none" fill="#FFFFFF" fill-rule="evenodd" /><path id="52" transform="matrix(1 0 0 -1 0 595)" d="M35.16527 437.4672L35.16527 437.4672C 35.16527 446.7883 42.72149 454.3445 52.04255 454.3445L52.04255 454.3445L198.5238 454.3445C 202.9999 454.3445 207.2927 452.5663 210.4578 449.4012C 213.6229 446.2361 215.4011 441.9433 215.4011 437.4672L215.4011 437.4672L215.4011 273.6234C 215.4011 264.3023 207.8448 256.7461 198.5238 256.7461L198.5238 256.7461L52.04255 256.7461C 42.72149 256.7461 35.16527 264.3023 35.16527 273.6234z" stroke="#0059A5" stroke-width="0.7499982" fill="none" /><path id="53" transform="matrix(1 0 0 -1 0 595)" d="M235.9772 437.4672L235.9772 437.4672C 235.9772 446.7883 243.5334 454.3445 252.8544 454.3445L252.8544 454.3445L399.3357 454.3445C 403.8118 454.3445 408.1046 452.5663 411.2697 449.4012C 414.4348 446.2361 416.213 441.9433 416.213 437.4672L416.213 437.4672L416.213 273.6234C 416.213 264.3023 408.6567 256.7461 399.3357 256.7461L399.3357 256.7461L252.8544 256.7461C 243.5334 256.7461 235.9772 264.3023 235.9772 273.6234z" stroke="none" fill="#FFFFFF" fill-rule="evenodd" /><path id="54" transform="matrix(1 0 0 -1 0 595)" d="M235.9772 437.4672L235.9772 437.4672C 235.9772 446.7883 243.5334 454.3445 252.8544 454.3445L252.8544 454.3445L399.3357 454.3445C 403.8118 454.3445 408.1046 452.5663 411.2697 449.4012C 414.4348 446.2361 416.213 441.9433 416.213 437.4672L416.213 437.4672L416.213 273.6234C 416.213 264.3023 408.6567 256.7461 399.3357 256.7461L399.3357 256.7461L252.8544 256.7461C 243.5334 256.7461 235.9772 264.3023 235.9772 273.6234z" stroke="#0059A5" stroke-width="0.7499982" fill="none" /><path id="55" transform="matrix(1 0 0 -1 0 595)" d="M436.7889 437.4672L436.7889 437.4672C 436.7889 446.7883 444.3452 454.3445 453.6663 454.3445L453.6663 454.3445L600.1475 454.3445C 604.6237 454.3445 608.9164 452.5663 612.0815 449.4012C 615.2466 446.2361 617.0247 441.9433 617.0247 437.4672L617.0247 437.4672L617.0247 273.6234C 617.0247 264.3023 609.4685 256.7461 600.1475 256.7461L600.1475 256.7461L453.6663 256.7461C 444.3452 256.7461 436.7889 264.3023 436.7889 273.6234z" stroke="none" fill="#FFFFFF" fill-rule="evenodd" /><path id="56" transform="matrix(1 0 0 -1 0 595)" d="M436.7889 437.4672L436.7889 437.4672C 436.7889 446.7883 444.3452 454.3445 453.6663 454.3445L453.6663 454.3445L600.1475 454.3445C 604.6237 454.3445 608.9164 452.5663 612.0815 449.4012C 615.2466 446.2361 617.0247 441.9433 617.0247 437.4672L617.0247 437.4672L617.0247 273.6234C 617.0247 264.3023 609.4685 256.7461 600.1475 256.7461L600.1475 256.7461L453.6663 256.7461C 444.3452 256.7461 436.7889 264.3023 436.7889 273.6234z" stroke="#0059A5" stroke-width="0.7499982" fill="none" /><path id="57" transform="matrix(1 0 0 -1 0 595)" d="M637.6008 437.4672L637.6008 437.4672C 637.6008 446.7883 645.157 454.3445 654.4781 454.3445L654.4781 454.3445L800.9594 454.3445C 805.4355 454.3445 809.7283 452.5663 812.8934 449.4012C 816.0585 446.2361 817.8367 441.9433 817.8367 437.4672L817.8367 437.4672L817.8367 273.6234C 817.8367 264.3023 810.2805 256.7461 800.9594 256.7461L800.9594 256.7461L654.4781 256.7461C 645.157 256.7461 637.6008 264.3023 637.6008 273.6234z" stroke="none" fill="#FFFFFF" fill-rule="evenodd" /><path id="58" transform="matrix(1 0 0 -1 0 595)" d="M637.6008 437.4672L637.6008 437.4672C 637.6008 446.7883 645.157 454.3445 654.4781 454.3445L654.4781 454.3445L800.9594 454.3445C 805.4355 454.3445 809.7283 452.5663 812.8934 449.4012C 816.0585 446.2361 817.8367 441.9433 817.8367 437.4672L817.8367 437.4672L817.8367 273.6234C 817.8367 264.3023 810.2805 256.7461 800.9594 256.7461L800.9594 256.7461L654.4781 256.7461C 645.157 256.7461 637.6008 264.3023 637.6008 273.6234z" stroke="#0059A5" stroke-width="0.7499982" fill="none" /><path id="59" transform="matrix(1 0 0 -1 0 595)" d="M35.16574 223.175L35.16574 223.175C 35.16574 232.4961 42.72196 240.0523 52.04302 240.0523L52.04302 240.0523L198.5243 240.0523C 203.0004 240.0523 207.2932 238.2742 210.4583 235.1091C 213.6234 231.944 215.4015 227.6512 215.4015 223.175L215.4015 223.175L215.4015 59.33124C 215.4015 50.01013 207.8453 42.45392 198.5243 42.45392L198.5243 42.45392L52.04302 42.45392C 42.72196 42.45392 35.16574 50.01013 35.16574 59.33124z" stroke="none" fill="#FFFFFF" fill-rule="evenodd" /><path id="60" transform="matrix(1 0 0 -1 0 595)" d="M35.16574 223.175L35.16574 223.175C 35.16574 232.4961 42.72196 240.0523 52.04302 240.0523L52.04302 240.0523L198.5243 240.0523C 203.0004 240.0523 207.2932 238.2742 210.4583 235.1091C 213.6234 231.944 215.4015 227.6512 215.4015 223.175L215.4015 223.175L215.4015 59.33124C 215.4015 50.01013 207.8453 42.45392 198.5243 42.45392L198.5243 42.45392L52.04302 42.45392C 42.72196 42.45392 35.16574 50.01013 35.16574 59.33124z" stroke="#0059A5" stroke-width="0.7499982" fill="none" /><path id="61" transform="matrix(1 0 0 -1 0 595)" d="M235.9772 223.175L235.9772 223.175C 235.9772 232.4961 243.5334 240.0523 252.8544 240.0523L252.8544 240.0523L399.3357 240.0523C 403.8118 240.0523 408.1046 238.2742 411.2697 235.1091C 414.4348 231.944 416.213 227.6512 416.213 223.175L416.213 223.175L416.213 59.33124C 416.213 50.01013 408.6567 42.45392 399.3357 42.45392L399.3357 42.45392L252.8544 42.45392C 243.5334 42.45392 235.9772 50.01013 235.9772 59.33124z" stroke="none" fill="#FFFFFF" fill-rule="evenodd" /><path id="62" transform="matrix(1 0 0 -1 0 595)" d="M235.9772 223.175L235.9772 223.175C 235.9772 232.4961 243.5334 240.0523 252.8544 240.0523L252.8544 240.0523L399.3357 240.0523C 403.8118 240.0523 408.1046 238.2742 411.2697 235.1091C 414.4348 231.944 416.213 227.6512 416.213 223.175L416.213 223.175L416.213 59.33124C 416.213 50.01013 408.6567 42.45392 399.3357 42.45392L399.3357 42.45392L252.8544 42.45392C 243.5334 42.45392 235.9772 50.01013 235.9772 59.33124z" stroke="#0059A5" stroke-width="0.7499982" fill="none" /><path id="63" transform="matrix(1 0 0 -1 0 595)" d="M436.7889 223.175L436.7889 223.175C 436.7889 232.4961 444.3452 240.0523 453.6663 240.0523L453.6663 240.0523L600.1475 240.0523C 604.6237 240.0523 608.9164 238.2742 612.0815 235.1091C 615.2466 231.944 617.0247 227.6512 617.0247 223.175L617.0247 223.175L617.0247 59.33124C 617.0247 50.01013 609.4685 42.45392 600.1475 42.45392L600.1475 42.45392L453.6663 42.45392C 444.3452 42.45392 436.7889 50.01013 436.7889 59.33124z" stroke="none" fill="#FFFFFF" fill-rule="evenodd" /><path id="64" transform="matrix(1 0 0 -1 0 595)" d="M436.7889 223.175L436.7889 223.175C 436.7889 232.4961 444.3452 240.0523 453.6663 240.0523L453.6663 240.0523L600.1475 240.0523C 604.6237 240.0523 608.9164 238.2742 612.0815 235.1091C 615.2466 231.944 617.0247 227.6512 617.0247 223.175L617.0247 223.175L617.0247 59.33124C 617.0247 50.01013 609.4685 42.45392 600.1475 42.45392L600.1475 42.45392L453.6663 42.45392C 444.3452 42.45392 436.7889 50.01013 436.7889 59.33124z" stroke="#0059A5" stroke-width="0.7499982" fill="none" /><path id="65" transform="matrix(1 0 0 -1 0 595)" d="M637.6008 223.175L637.6008 223.175C 637.6008 232.4961 645.157 240.0523 654.4781 240.0523L654.4781 240.0523L800.9594 240.0523C 805.4355 240.0523 809.7283 238.2742 812.8934 235.1091C 816.0585 231.944 817.8367 227.6512 817.8367 223.175L817.8367 223.175L817.8367 59.33124C 817.8367 50.01013 810.2805 42.45392 800.9594 42.45392L800.9594 42.45392L654.4781 42.45392C 645.157 42.45392 637.6008 50.01013 637.6008 59.33124z" stroke="none" fill="#FFFFFF" fill-rule="evenodd" /><path id="66" transform="matrix(1 0 0 -1 0 595)" d="M637.6008 223.175L637.6008 223.175C 637.6008 232.4961 645.157 240.0523 654.4781 240.0523L654.4781 240.0523L800.9594 240.0523C 805.4355 240.0523 809.7283 238.2742 812.8934 235.1091C 816.0585 231.944 817.8367 227.6512 817.8367 223.175L817.8367 223.175L817.8367 59.33124C 817.8367 50.01013 810.2805 42.45392 800.9594 42.45392L800.9594 42.45392L654.4781 42.45392C 645.157 42.45392 637.6008 50.01013 637.6008 59.33124z" stroke="#0059A5" stroke-width="0.7499982" fill="none" /><path id="67" transform="matrix(1 0 0 -1 0 595)" d="M96.33245 426.8624L154.2338 426.8624L154.2338 426.8624L154.2338 387.5416L154.2338 387.5416L96.33245 387.5416z" stroke="none" fill="#000000" fill-rule="evenodd" fill-opacity="0" /><g clip-path="url(#4)"><g transform="matrix(0.05401246 0 0 0.05401218 96.33244 168.1376)"><g transform="matrix(1 0 0 1 0 0)"><image x="0" y="0" xlink:href="img_02.png" width="1072" height="728" /></g></g></g><path id="69" transform="matrix(1 0 0 -1 0 595)" d="M40.72825 378.5923L209.8381 378.5923L209.8381 378.5923L209.8381 267.0962L209.8381 267.0962L40.72825 267.0962z" stroke="none" fill="#000000" fill-rule="evenodd" fill-opacity="0" /><path id="258" transform="matrix(1 0 0 -1 0 595)" d="M297.144 424.7589L355.0454 424.7589L355.0454 424.7589L355.0454 389.645L355.0454 389.645L297.144 389.645z" stroke="none" fill="#000000" fill-rule="evenodd" fill-opacity="0" /><g clip-path="url(#5)"><g transform="matrix(0.02827219 0 0 0.02827203 297.144 170.2411)"><g transform="matrix(1 0 0 1 0 0)"><image x="0" y="0" xlink:href="img_03.png" width="2048" height="1242" /></g></g></g><path id="260" transform="matrix(1 0 0 -1 0 595)" d="M241.5398 357.3797L410.6497 357.3797L410.6497 357.3797L410.6497 288.3088L410.6497 288.3088L241.5398 288.3088z" stroke="none" fill="#000000" fill-rule="evenodd" fill-opacity="0" /><path id="295" transform="matrix(1 0 0 -1 0 595)" d="M504.8668 430.2236L548.9467 430.2236L548.9467 430.2236L548.9467 384.1803L548.9467 384.1803L504.8668 384.1803z" stroke="none" fill="#000000" fill-rule="evenodd" fill-opacity="0" /><g clip-path="url(#6)"><g transform="matrix(0.08178088 0 0 0.08178207 504.8668 164.7764)"><g transform="matrix(1 0 0 1 0 0)"><image x="0" y="0" xlink:href="img_04.png" width="539" height="563" /></g></g></g><path id="297" transform="matrix(1 0 0 -1 0 595)" d="M442.3519 357.3797L611.4618 357.3797L611.4618 357.3797L611.4618 288.3088L611.4618 288.3088L442.3519 288.3088z" stroke="none" fill="#000000" fill-rule="evenodd" fill-opacity="0" /><path id="345" transform="matrix(1 0 0 -1 0 595)" d="M701.4088 430.2236L754.0295 430.2236L754.0295 430.2236L754.0295 384.1803L754.0295 384.1803L701.4088 384.1803z" stroke="none" fill="#000000" fill-rule="evenodd" fill-opacity="0" /><g clip-path="url(#7)"><g transform="matrix(0.1027749 0 0 0.1027752 701.4088 164.7764)"><g transform="matrix(1 0 0 1 0 0)"><image x="0" y="0" xlink:href="img_05.png" width="512" height="448" /></g></g></g><path id="347" transform="matrix(1 0 0 -1 0 595)" d="M643.1625 372.5332L812.2723 372.5332L812.2723 372.5332L812.2723 273.1553L812.2723 273.1553L643.1625 273.1553z" stroke="none" fill="#000000" fill-rule="evenodd" fill-opacity="0" /><path id="504" transform="matrix(1 0 0 -1 0 595)" d="M98.97315 216.6734L151.5931 216.6734L151.5931 216.6734L151.5931 166.9948L151.5931 166.9948L98.97315 166.9948z" stroke="none" fill="#000000" fill-rule="evenodd" fill-opacity="0" /><g clip-path="url(#8)"><g transform="matrix(0.06256831 0 0 0.06256748 98.97315 378.3266)"><g transform="matrix(1 0 0 1 0 0)"><image x="0" y="0" xlink:href="img_06.png" width="841" height="794" /></g></g></g><path id="506" transform="matrix(1 0 0 -1 0 595)" d="M40.72872 147.8418L209.8386 147.8418L209.8386 147.8418L209.8386 60.58197L209.8386 60.58197L40.72872 60.58197z" stroke="none" fill="#000000" fill-rule="evenodd" fill-opacity="0" /><path id="559" transform="matrix(1 0 0 -1 0 595)" d="M241.5388 135.7237L410.6486 135.7237L410.6486 135.7237L410.6486 72.70007L410.6486 72.70007L241.5388 72.70007z" stroke="none" fill="#000000" fill-rule="evenodd" fill-opacity="0" /><path id="643" transform="matrix(1 0 0 -1 0 595)" d="M442.3523 147.8418L611.4622 147.8418L611.4622 147.8418L611.4622 60.58197L611.4622 60.58197L442.3523 60.58197z" stroke="none" fill="#000000" fill-rule="evenodd" fill-opacity="0" /><path id="778" transform="matrix(1 0 0 -1 0 595)" d="M643.1629 129.6646L812.2728 129.6646L812.2728 129.6646L812.2728 78.75909L812.2728 78.75909L643.1629 78.75909z" stroke="none" fill="#000000" fill-rule="evenodd" fill-opacity="0" /><path id="798" transform="matrix(1 0 0 -1 0 595)" d="M297.145 216.9899L355.0444 216.9899L355.0444 216.9899L355.0444 166.6772L355.0444 166.6772L297.145 166.6772z" stroke="none" fill="#000000" fill-rule="evenodd" fill-opacity="0" /><g clip-path="url(#9)"><g transform="matrix(0.09982667 0 0 0.09982675 297.145 378.0101)"><g transform="matrix(1 0 0 1 0 0)"><image x="0" y="0" xlink:href="img_07.png" width="580" height="504" /></g></g></g><path id="800" transform="matrix(1 0 0 -1 0 595)" d="M504.8666 215.6656L548.9472 215.6656L548.9472 215.6656L548.9472 168.0026L548.9472 168.0026L504.8666 168.0026z" stroke="none" fill="#000000" fill-rule="evenodd" fill-opacity="0" /><g clip-path="url(#10)"><g transform="matrix(0.09950475 0 0 0.09950536 504.8666 379.3344)"><g transform="matrix(1 0 0 1 0 0)"><image x="0" y="0" xlink:href="img_08.png" width="443" height="479" /></g></g></g><path id="802" transform="matrix(1 0 0 -1 0 595)" d="M703.937 215.6653L751.5024 215.6653L751.5024 215.6653L751.5024 168.002L751.5024 168.002L703.937 168.002z" stroke="none" fill="#000000" fill-rule="evenodd" fill-opacity="0" /><g clip-path="url(#11)"><g transform="matrix(0.0964817 0 0 0.09648459 703.9369 379.3347)"><g transform="matrix(1 0 0 1 0 0)"><image x="0" y="0" xlink:href="img_09.png" width="493" height="494" /></g></g></g><path id="804" transform="matrix(1 0 0 -1 0 595)" d="M719.0868 577.3348L811.8561 577.3348L811.8561 577.3348L811.8561 548.2563L811.8561 548.2563L719.0868 548.2563z" stroke="none" fill="#000000" fill-rule="evenodd" fill-opacity="0" /><g clip-path="url(#12)"><g transform="matrix(0.1177276 0 0 0.1177264 719.0868 17.66522)"><g transform="matrix(1 0 0 1 0 0)"><image x="0" y="0" xlink:href="img_10.png" width="788" height="247" /></g></g></g></g></g></g></svg>