<svg xmlns="http://www.w3.org/2000/svg" xmlns:xlink="http://www.w3.org/1999/xlink" id="body_1" preserveAspectRatio="xMinYMin meet" viewBox="0 0 1121 793"><defs><clipPath id="1"><path id="" clip-rule="evenodd" transform="matrix(1 0 0 1 0 0)" d="M0 595L0 0L0 0L841 0L841 0L841 595L841 595L0 595z" /></clipPath><clipPath id="2"><path id="" clip-rule="evenodd" transform="matrix(1 0 0 1 0 0)" d="M0 0L841.8878 0L841.8878 0L841.8878 595.2756L841.8878 595.2756L0 595.2756L0 595.2756L0 0z" /></clipPath><clipPath id="3"><path id="" clip-rule="evenodd" transform="matrix(1 0 0 1 0 0)" d="M0 0L841.8878 0L841.8878 0L841.8878 595.2756L841.8878 595.2756L0 595.2756z" /></clipPath><clipPath id="4"><path id="" clip-rule="evenodd" transform="matrix(1 0 0 1 0 0)" d="M719.0868 17.66522L811.8561 17.66522L811.8561 17.66522L811.8561 46.74365L811.8561 46.74365L719.0868 46.74365z" /></clipPath><clipPath id="5"><path id="" clip-rule="evenodd" transform="matrix(1 0 0 1 0 0)" d="M37.67527 97.67056L375.082 97.67056L375.082 97.67056L375.082 548.5209L375.082 548.5209L37.67527 548.5209z" /></clipPath></defs><g transform="matrix(1.333333 0 0 1.333333 0 0)"><g clip-path="url(#1)"><g clip-path="url(#2)"><path id="1" transform="matrix(1 0 0 -1 0 595)" d="M0 595L841.8878 595L841.8878 595L841.8878 -0.2755737L841.8878 -0.2755737L0 -0.2755737z" stroke="none" fill="#000000" fill-rule="evenodd" fill-opacity="0" /><g clip-path="url(#3)"><g transform="matrix(0.3367551 0 0 0.3366943 0 0)"><g transform="matrix(1 0 0 1 0 0)"><image x="0" y="0" xlink:href="img_01.png" width="2500" height="1768" /></g></g></g><path id="3" transform="matrix(1 0 0 -1 0 595)" d="M27.48812 569.7382L727.5494 569.7382L727.5494 569.7382L727.5494 518.8327L727.5494 518.8327L27.48812 518.8327z" stroke="none" fill="#000000" fill-rule="evenodd" fill-opacity="0" /><path id="21" transform="matrix(1 0 0 -1 0 595)" d="M384.2904 538.067L817.8484 538.067L817.8484 538.067L817.8484 533.0355L817.8484 533.0355L384.2904 533.0355z" stroke="none" fill="#0059A5" fill-rule="evenodd" /><path id="22" transform="matrix(1 0 0 -1 0 595)" d="M401.8776 499.5551L823.0104 499.5551L823.0104 499.5551L823.0104 48.70471L823.0104 48.70471L401.8776 48.70471z" stroke="none" fill="#000000" fill-rule="evenodd" fill-opacity="0" /><path id="469" transform="matrix(1 0 0 -1 0 595)" d="M719.0868 577.3348L811.8561 577.3348L811.8561 577.3348L811.8561 548.2563L811.8561 548.2563L719.0868 548.2563z" stroke="none" fill="#000000" fill-rule="evenodd" fill-opacity="0" /><g clip-path="url(#4)"><g transform="matrix(0.1177276 0 0 0.1177264 719.0868 17.66522)"><g transform="matrix(1 0 0 1 0 0)"><image x="0" y="0" xlink:href="img_02.png" width="788" height="247" /></g></g></g><path id="471" transform="matrix(1 0 0 -1 0 595)" d="M-0.007873997 17.30707L841.8799 17.30707L841.8799 17.30707L841.8799 -0.2677002L841.8799 -0.2677002L-0.007873997 -0.2677002z" stroke="none" fill="#0059A5" fill-rule="evenodd" /><path id="472" transform="matrix(1 0 0 -1 0 595)" d="M37.67527 497.3294L375.082 497.3294L375.082 497.3294L375.082 46.47906L375.082 46.47906L37.67527 46.47906z" stroke="none" fill="#000000" fill-rule="evenodd" fill-opacity="0" /><g clip-path="url(#5)"><g transform="matrix(0.3342315 0 0 0.3342108 -229.4053 97.67053)"><g transform="matrix(1 0 0 1 0 0)"><image x="0" y="0" xlink:href="img_03.png" width="2048" height="1349" /></g></g></g></g></g></g></svg>