<svg xmlns="http://www.w3.org/2000/svg" xmlns:xlink="http://www.w3.org/1999/xlink" id="body_1" preserveAspectRatio="xMinYMin meet" viewBox="0 0 1121 793"><defs><clipPath id="1"><path id="" clip-rule="evenodd" transform="matrix(1 0 0 1 0 0)" d="M0 595L0 0L0 0L841 0L841 0L841 595L841 595L0 595z" /></clipPath><clipPath id="2"><path id="" clip-rule="evenodd" transform="matrix(1 0 0 1 0 0)" d="M0 0L841.8878 0L841.8878 0L841.8878 595.2756L841.8878 595.2756L0 595.2756L0 595.2756L0 0z" /></clipPath><clipPath id="3"><path id="" clip-rule="evenodd" transform="matrix(1 0 0 1 0 0)" d="M0 0L841.8878 0L841.8878 0L841.8878 595.2756L841.8878 595.2756L0 595.2756z" /></clipPath><clipPath id="4"><path id="" clip-rule="evenodd" transform="matrix(1 0 0 1 0 0)" d="M719.0868 17.66522L811.8561 17.66522L811.8561 17.66522L811.8561 46.74365L811.8561 46.74365L719.0868 46.74365z" /></clipPath></defs><g transform="matrix(1.333333 0 0 1.333333 0 0)"><g clip-path="url(#1)"><g clip-path="url(#2)"><path id="1" transform="matrix(1 0 0 -1 0 595)" d="M0 595L841.8878 595L841.8878 595L841.8878 -0.2755737L841.8878 -0.2755737L0 -0.2755737z" stroke="none" fill="#000000" fill-rule="evenodd" fill-opacity="0" /><g clip-path="url(#3)"><g transform="matrix(0.3367551 0 0 0.3366943 0 0)"><g transform="matrix(1 0 0 1 0 0)"><image x="0" y="0" xlink:href="img_01.png" width="2500" height="1768" /></g></g></g><path id="3" transform="matrix(1 0 0 -1 0 595)" d="M27.48812 569.7382L681.5102 569.7382L681.5102 569.7382L681.5102 477.0217L681.5102 477.0217L27.48812 477.0217z" stroke="none" fill="#000000" fill-rule="evenodd" fill-opacity="0" /><path id="38" transform="matrix(1 0 0 -1 0 595)" d="M280.4738 497.7402L817.8504 497.7402L817.8504 497.7402L817.8504 492.7087L817.8504 492.7087L280.4738 492.7087z" stroke="none" fill="#0059A5" fill-rule="evenodd" /><path id="39" transform="matrix(1 0 0 -1 0 595)" d="M-0.007873997 17.30707L841.8799 17.30707L841.8799 17.30707L841.8799 -0.2677002L841.8799 -0.2677002L-0.007873997 -0.2677002z" stroke="none" fill="#0059A5" fill-rule="evenodd" /><path id="40" transform="matrix(1 0 0 -1 0 595)" d="M27.48812 450.1575L817.8327 450.1575L817.8327 450.1575L817.8327 383.4961L817.8327 383.4961L27.48812 383.4961z" stroke="none" fill="#000000" fill-rule="evenodd" fill-opacity="0" /><path id="146" transform="matrix(1 0 0 -1 0 595)" d="M30.1404 346.8931L30.1404 346.8931C 30.1404 354.9107 36.63993 361.4102 44.65752 361.4102L44.65752 361.4102L395.8192 361.4102C 399.6694 361.4102 403.3619 359.8807 406.0844 357.1583C 408.8069 354.4358 410.3363 350.7433 410.3363 346.8931L410.3363 346.8931L410.3363 220.8959C 410.3363 212.8783 403.8368 206.3788 395.8192 206.3788L395.8192 206.3788L44.65752 206.3788C 36.63993 206.3788 30.1404 212.8783 30.1404 220.8959z" stroke="none" fill="#FFFFFF" fill-rule="evenodd" /><path id="147" transform="matrix(1 0 0 -1 0 595)" d="M30.1404 346.8931L30.1404 346.8931C 30.1404 354.9107 36.63993 361.4102 44.65752 361.4102L44.65752 361.4102L395.8192 361.4102C 399.6694 361.4102 403.3619 359.8807 406.0844 357.1583C 408.8069 354.4358 410.3363 350.7433 410.3363 346.8931L410.3363 346.8931L410.3363 220.8959C 410.3363 212.8783 403.8368 206.3788 395.8192 206.3788L395.8192 206.3788L44.65752 206.3788C 36.63993 206.3788 30.1404 212.8783 30.1404 220.8959z" stroke="#0059A5" stroke-width="0.7499982" fill="none" /><path id="148" transform="matrix(1 0 0 -1 0 595)" d="M435.9626 346.8931L435.9626 346.8931C 435.9626 354.9107 442.4621 361.4102 450.4797 361.4102L450.4797 361.4102L801.6414 361.4102C 805.4916 361.4102 809.1841 359.8807 811.9066 357.1583C 814.629 354.4358 816.1586 350.7433 816.1586 346.8931L816.1586 346.8931L816.1586 220.8959C 816.1586 212.8783 809.659 206.3788 801.6414 206.3788L801.6414 206.3788L450.4797 206.3788C 442.4621 206.3788 435.9626 212.8783 435.9626 220.8959z" stroke="none" fill="#FFFFFF" fill-rule="evenodd" /><path id="149" transform="matrix(1 0 0 -1 0 595)" d="M435.9626 346.8931L435.9626 346.8931C 435.9626 354.9107 442.4621 361.4102 450.4797 361.4102L450.4797 361.4102L801.6414 361.4102C 805.4916 361.4102 809.1841 359.8807 811.9066 357.1583C 814.629 354.4358 816.1586 350.7433 816.1586 346.8931L816.1586 346.8931L816.1586 220.8959C 816.1586 212.8783 809.659 206.3788 801.6414 206.3788L801.6414 206.3788L450.4797 206.3788C 442.4621 206.3788 435.9626 212.8783 435.9626 220.8959z" stroke="#0059A5" stroke-width="0.7499982" fill="none" /><path id="150" transform="matrix(1 0 0 -1 0 595)" d="M30.14237 173.6318L30.14237 173.6318C 30.14237 181.1168 36.21012 187.1846 43.69507 187.1846L43.69507 187.1846L396.7856 187.1846C 400.38 187.1846 403.8272 185.7567 406.3688 183.2151C 408.9105 180.6734 410.3383 177.2263 410.3383 173.6318L410.3383 173.6318L410.3383 56.00507C 410.3383 48.52008 404.2706 42.45227 396.7856 42.45227L396.7856 42.45227L43.69507 42.45227C 36.21012 42.45227 30.14237 48.52008 30.14237 56.00507z" stroke="none" fill="#FFFFFF" fill-rule="evenodd" /><path id="151" transform="matrix(1 0 0 -1 0 595)" d="M30.14237 173.6318L30.14237 173.6318C 30.14237 181.1168 36.21012 187.1846 43.69507 187.1846L43.69507 187.1846L396.7856 187.1846C 400.38 187.1846 403.8272 185.7567 406.3688 183.2151C 408.9105 180.6734 410.3383 177.2263 410.3383 173.6318L410.3383 173.6318L410.3383 56.00507C 410.3383 48.52008 404.2706 42.45227 396.7856 42.45227L396.7856 42.45227L43.69507 42.45227C 36.21012 42.45227 30.14237 48.52008 30.14237 56.00507z" stroke="#0059A5" stroke-width="0.7499982" fill="none" /><path id="152" transform="matrix(1 0 0 -1 0 595)" d="M435.9628 173.6318L435.9628 173.6318C 435.9628 181.1168 442.0306 187.1846 449.5155 187.1846L449.5155 187.1846L802.6061 187.1846C 806.2005 187.1846 809.6477 185.7567 812.1893 183.2151C 814.7309 180.6734 816.1588 177.2263 816.1588 173.6318L816.1588 173.6318L816.1588 56.00507C 816.1588 48.52008 810.091 42.45227 802.6061 42.45227L802.6061 42.45227L449.5155 42.45227C 442.0306 42.45227 435.9628 48.52008 435.9628 56.00507z" stroke="none" fill="#FFFFFF" fill-rule="evenodd" /><path id="153" transform="matrix(1 0 0 -1 0 595)" d="M435.9628 173.6318L435.9628 173.6318C 435.9628 181.1168 442.0306 187.1846 449.5155 187.1846L449.5155 187.1846L802.6061 187.1846C 806.2005 187.1846 809.6477 185.7567 812.1893 183.2151C 814.7309 180.6734 816.1588 177.2263 816.1588 173.6318L816.1588 173.6318L816.1588 56.00507C 816.1588 48.52008 810.091 42.45227 802.6061 42.45227L802.6061 42.45227L449.5155 42.45227C 442.0306 42.45227 435.9628 48.52008 435.9628 56.00507z" stroke="#0059A5" stroke-width="0.7499982" fill="none" /><path id="154" transform="matrix(1 0 0 -1 0 595)" d="M154.1906 325.1614L378.316 325.1614L378.316 325.1614L378.316 235.1142L378.316 235.1142L154.1906 235.1142z" stroke="none" fill="#000000" fill-rule="evenodd" fill-opacity="0" /><path id="228" transform="matrix(1 0 0 -1 0 595)" d="M154.1906 150.0862L378.316 150.0862L378.316 150.0862L378.316 79.55072L378.316 79.55072L154.1906 79.55072z" stroke="none" fill="#000000" fill-rule="evenodd" fill-opacity="0" /><path id="275" transform="matrix(1 0 0 -1 0 595)" d="M44.37241 349.3386L148.1911 349.3386L148.1911 349.3386L148.1911 218.4488L148.1911 218.4488L44.37241 218.4488z" stroke="none" fill="#000000" fill-rule="evenodd" fill-opacity="0" /><path id="277" transform="matrix(1 0 0 -1 0 595)" d="M44.37241 180.2633L148.1911 180.2633L148.1911 180.2633L148.1911 49.37354L148.1911 49.37354L44.37241 49.37354z" stroke="none" fill="#000000" fill-rule="evenodd" fill-opacity="0" /><path id="279" transform="matrix(1 0 0 -1 0 595)" d="M449.1746 349.3386L552.9933 349.3386L552.9933 349.3386L552.9933 218.4488L552.9933 218.4488L449.1746 218.4488z" stroke="none" fill="#000000" fill-rule="evenodd" fill-opacity="0" /><path id="281" transform="matrix(1 0 0 -1 0 595)" d="M449.1746 180.2633L552.9933 180.2633L552.9933 180.2633L552.9933 49.37354L552.9933 49.37354L449.1746 49.37354z" stroke="none" fill="#000000" fill-rule="evenodd" fill-opacity="0" /><path id="283" transform="matrix(1 0 0 -1 0 595)" d="M560.0144 319.1622L784.1399 319.1622L784.1399 319.1622L784.1399 248.6268L784.1399 248.6268L560.0144 248.6268z" stroke="none" fill="#000000" fill-rule="evenodd" fill-opacity="0" /><path id="327" transform="matrix(1 0 0 -1 0 595)" d="M560.0144 159.8421L784.1399 159.8421L784.1399 159.8421L784.1399 69.7948L784.1399 69.7948L560.0144 69.7948z" stroke="none" fill="#000000" fill-rule="evenodd" fill-opacity="0" /><path id="394" transform="matrix(1 0 0 -1 0 595)" d="M719.0868 577.3348L811.8561 577.3348L811.8561 577.3348L811.8561 548.2563L811.8561 548.2563L719.0868 548.2563z" stroke="none" fill="#000000" fill-rule="evenodd" fill-opacity="0" /><g clip-path="url(#4)"><g transform="matrix(0.1177276 0 0 0.1177264 719.0868 17.66522)"><g transform="matrix(1 0 0 1 0 0)"><image x="0" y="0" xlink:href="img_02.png" width="788" height="247" /></g></g></g></g></g></g></svg>