<svg xmlns="http://www.w3.org/2000/svg" xmlns:xlink="http://www.w3.org/1999/xlink" id="body_1" preserveAspectRatio="xMinYMin meet" viewBox="0 0 1121 793"><defs><clipPath id="1"><path id="" clip-rule="evenodd" transform="matrix(1 0 0 1 0 0)" d="M0 595L0 0L0 0L841 0L841 0L841 595L841 595L0 595z" /></clipPath><clipPath id="2"><path id="" clip-rule="evenodd" transform="matrix(1 0 0 1 0 0)" d="M0 0L841.8878 0L841.8878 0L841.8878 595.2756L841.8878 595.2756L0 595.2756L0 595.2756L0 0z" /></clipPath><clipPath id="3"><path id="" clip-rule="evenodd" transform="matrix(1 0 0 1 0 0)" d="M0 0L841.8878 0L841.8878 0L841.8878 595.2756L841.8878 595.2756L0 595.2756z" /></clipPath><clipPath id="4"><path id="" clip-rule="evenodd" transform="matrix(1 0 0 1 0 0)" d="M51.48956 126.7191L128.9343 126.7191L128.9343 126.7191L128.9343 203.9632L128.9343 203.9632L51.48956 203.9632z" /></clipPath><clipPath id="5"><path id="" clip-rule="evenodd" transform="matrix(1 0 0 1 0 0)" d="M482.5264 132.3317L546.8707 132.3317L546.8707 132.3317L546.8707 196.6761L546.8707 196.6761L482.5264 196.6761z" /></clipPath><clipPath id="6"><path id="" clip-rule="evenodd" transform="matrix(1 0 0 1 0 0)" d="M719.0868 17.66522L811.8561 17.66522L811.8561 17.66522L811.8561 46.74365L811.8561 46.74365L719.0868 46.74365z" /></clipPath></defs><g transform="matrix(1.333333 0 0 1.333333 0 0)"><g clip-path="url(#1)"><g clip-path="url(#2)"><path id="1" transform="matrix(1 0 0 -1 0 595)" d="M0 595L841.8878 595L841.8878 595L841.8878 -0.2755737L841.8878 -0.2755737L0 -0.2755737z" stroke="none" fill="#000000" fill-rule="evenodd" fill-opacity="0" /><g clip-path="url(#3)"><g transform="matrix(0.3367551 0 0 0.3366943 0 0)"><g transform="matrix(1 0 0 1 0 0)"><image x="0" y="0" xlink:href="img_01.png" width="2500" height="1768" /></g></g></g><path id="3" transform="matrix(1 0 0 -1 0 595)" d="M462.1544 479.816L462.1544 479.816C 462.1544 486.0928 467.2427 491.1811 473.5195 491.1811L473.5195 491.1811L806.5129 491.1811C 809.5271 491.1811 812.4178 489.9837 814.5493 487.8524C 816.6806 485.721 817.878 482.8302 817.878 479.816L817.878 479.816L817.878 381.1761C 817.878 374.8994 812.7897 369.811 806.5129 369.811L806.5129 369.811L473.5195 369.811L473.5195 369.811L473.5195 369.811C 467.2427 369.811 462.1544 374.8994 462.1544 381.1761z" stroke="none" fill="#FFFFFF" fill-rule="evenodd" /><path id="4" transform="matrix(1 0 0 -1 0 595)" d="M462.1544 479.816L462.1544 479.816C 462.1544 486.0928 467.2427 491.1811 473.5195 491.1811L473.5195 491.1811L806.5129 491.1811C 809.5271 491.1811 812.4178 489.9837 814.5493 487.8524C 816.6806 485.721 817.878 482.8302 817.878 479.816L817.878 479.816L817.878 381.1761C 817.878 374.8994 812.7897 369.811 806.5129 369.811L806.5129 369.811L473.5195 369.811L473.5195 369.811L473.5195 369.811C 467.2427 369.811 462.1544 374.8994 462.1544 381.1761z" stroke="#0059A5" stroke-width="0.7499982" fill="none" /><path id="5" transform="matrix(1 0 0 -1 0 595)" d="M27.48804 569.7388L601.0064 569.7388L601.0064 569.7388L601.0064 518.8333L601.0064 518.8333L27.48804 518.8333z" stroke="none" fill="#000000" fill-rule="evenodd" fill-opacity="0" /><path id="17" transform="matrix(1 0 0 -1 0 595)" d="M261.2179 538.067L817.8465 538.067L817.8465 538.067L817.8465 533.0355L817.8465 533.0355L261.2179 533.0355z" stroke="none" fill="#0059A5" fill-rule="evenodd" /><path id="18" transform="matrix(1 0 0 -1 0 595)" d="M-0.007873997 205.8209L841.8799 205.8209L841.8799 205.8209L841.8799 -0.2578735L841.8799 -0.2578735L-0.007873997 -0.2578735z" stroke="none" fill="#0059A5" fill-rule="evenodd" /><path id="19" transform="matrix(1 0 0 -1 0 595)" d="M30.13969 479.816L30.13969 479.816C 30.13969 486.0928 35.228 491.1811 41.50476 491.1811L41.50476 491.1811L434.876 491.1811C 437.8902 491.1811 440.7809 489.9837 442.9123 487.8524C 445.0437 485.721 446.2411 482.8302 446.2411 479.816L446.2411 479.816L446.2411 381.1761C 446.2411 374.8994 441.1527 369.811 434.876 369.811L434.876 369.811L41.50476 369.811C 35.228 369.811 30.13969 374.8994 30.13969 381.1761z" stroke="none" fill="#FFFFFF" fill-rule="evenodd" /><path id="20" transform="matrix(1 0 0 -1 0 595)" d="M30.13969 479.816L30.13969 479.816C 30.13969 486.0928 35.228 491.1811 41.50476 491.1811L41.50476 491.1811L434.876 491.1811C 437.8902 491.1811 440.7809 489.9837 442.9123 487.8524C 445.0437 485.721 446.2411 482.8302 446.2411 479.816L446.2411 479.816L446.2411 381.1761C 446.2411 374.8994 441.1527 369.811 434.876 369.811L434.876 369.811L41.50476 369.811C 35.228 369.811 30.13969 374.8994 30.13969 381.1761z" stroke="#0059A5" stroke-width="0.7499982" fill="none" /><path id="21" transform="matrix(1 0 0 -1 0 595)" d="M144.1434 481.8858L438.7096 481.8858L438.7096 481.8858L438.7096 379.1063L438.7096 379.1063L144.1434 379.1063z" stroke="none" fill="#000000" fill-rule="evenodd" fill-opacity="0" /><path id="148" transform="matrix(1 0 0 -1 0 595)" d="M51.48956 468.2809L128.9343 468.2809L128.9343 468.2809L128.9343 391.0368L128.9343 391.0368L51.48956 391.0368z" stroke="none" fill="#000000" fill-rule="evenodd" fill-opacity="0" /><g clip-path="url(#4)"><g transform="matrix(0.2011551 0 0 0.2011565 51.48956 126.7192)"><g transform="matrix(1 0 0 1 0 0)"><image x="0" y="0" xlink:href="img_02.png" width="385" height="384" /></g></g></g><path id="150" transform="matrix(1 0 0 -1 0 595)" d="M556.7614 481.0492L806.2568 481.0492L806.2568 481.0492L806.2568 378.2697L806.2568 378.2697L556.7614 378.2697z" stroke="none" fill="#000000" fill-rule="evenodd" fill-opacity="0" /><path id="249" transform="matrix(1 0 0 -1 0 595)" d="M482.5264 462.6683L546.8707 462.6683L546.8707 462.6683L546.8707 398.3239L546.8707 398.3239L482.5264 398.3239z" stroke="none" fill="#000000" fill-rule="evenodd" fill-opacity="0" /><g clip-path="url(#5)"><g transform="matrix(0.1658359 0 0 0.1658363 482.5264 132.3317)"><g transform="matrix(1 0 0 1 0 0)"><image x="0" y="0" xlink:href="img_03.png" width="388" height="388" /></g></g></g><path id="251" transform="matrix(1 0 0 -1 0 595)" d="M30.13969 343.2712L817.8386 343.2712L817.8386 343.2712L817.8386 268.1295L817.8386 268.1295L30.13969 268.1295z" stroke="none" fill="#000000" fill-rule="evenodd" fill-opacity="0" /><path id="319" transform="matrix(1 0 0 -1 0 595)" d="M30.13969 264.9897L817.8386 264.9897L817.8386 264.9897L817.8386 233.4779L817.8386 233.4779L30.13969 233.4779z" stroke="none" fill="#000000" fill-rule="evenodd" fill-opacity="0" /><path id="320" transform="matrix(1 0 0 -1 0 595)" d="M75.27129 258.3441L772.707 258.3441L772.707 241.2876L75.27129 241.2876L75.27129 258.3441z" stroke="none" fill="#000000" fill-rule="nonzero" fill-opacity="0" /><path id="414" transform="matrix(1 0 0 -1 0 595)" d="M75.27129 243.8896L772.707 243.8896L772.707 242.6297L75.27129 242.6297L75.27129 243.8896z" stroke="none" fill="#0059A5" fill-rule="nonzero" /><path id="415" transform="matrix(1 0 0 -1 0 595)" d="M27.08655 177.8875L814.7855 177.8875L814.7855 177.8875L814.7855 102.7458L814.7855 102.7458L27.08655 102.7458z" stroke="none" fill="#000000" fill-rule="evenodd" fill-opacity="0" /><path id="486" transform="matrix(1 0 0 -1 0 595)" d="M302.826 97.88638L539.046 97.88638L539.046 97.88638L539.046 66.37457L539.046 66.37457L302.826 66.37457z" stroke="none" fill="#000000" fill-rule="evenodd" fill-opacity="0" /><path id="511" transform="matrix(1 0 0 -1 0 595)" d="M30.13969 67.80707L817.8386 67.80707L817.8386 67.80707L817.8386 36.29529L817.8386 36.29529L30.13969 36.29529z" stroke="none" fill="#000000" fill-rule="evenodd" fill-opacity="0" /><path id="512" transform="matrix(1 0 0 -1 0 595)" d="M124.573 61.16153L723.4053 61.16153L723.4053 44.10505L124.573 44.10505L124.573 61.16153z" stroke="none" fill="#000000" fill-rule="nonzero" fill-opacity="0" /><path id="587" transform="matrix(1 0 0 -1 0 595)" d="M124.573 46.70708L723.4053 46.70708L723.4053 45.44708L124.573 45.44708L124.573 46.70708z" stroke="none" fill="#FFFFFF" fill-rule="nonzero" /><path id="588" transform="matrix(1 0 0 -1 0 595)" d="M719.0868 577.3348L811.8561 577.3348L811.8561 577.3348L811.8561 548.2563L811.8561 548.2563L719.0868 548.2563z" stroke="none" fill="#000000" fill-rule="evenodd" fill-opacity="0" /><g clip-path="url(#6)"><g transform="matrix(0.1177276 0 0 0.1177264 719.0868 17.66522)"><g transform="matrix(1 0 0 1 0 0)"><image x="0" y="0" xlink:href="img_04.png" width="788" height="247" /></g></g></g></g></g></g></svg>